<svg xmlns="http://www.w3.org/2000/svg" width="858" height="257" style="box-sizing: inherit; font-family: Calibri;"><rect id="backgroundRect" width="100%" height="100%" class="wj-esri-background" x="0" y="0" fill="rgb(255,255,255)" fill-opacity="1" visibility="visible" style="box-sizing: inherit; fill: rgb(255, 255, 255); fill-opacity: 1; display: block;"/><defs style="box-sizing: inherit;"/><clipPath id="chartRect191941" style="box-sizing: inherit;"><rect x="-1.0" y="-1.0" width="855.0" height="251.0" style="box-sizing: inherit;"/></clipPath><g class="wj-header" style="box-sizing: inherit; background: rgb(238, 238, 238); color: rgb(68, 68, 68); font-weight: 700;" clip-path="url(#chartRect191941)"><text x="203.5" y="24.0" fill="rgb(68,68,68)" class="wj-title" fill-opacity="1" display="block" style="box-sizing: inherit; cursor: default; font-size: 16pt; font-family: &apos;Segoe UI&apos;; font-style: normal; font-weight: normal; display: block; fill: rgb(68, 68, 68); fill-opacity: 1;">Timeline of Women in Management in Germany</text></g><g class="wj-footer" style="box-sizing: inherit;" clip-path="url(#chartRect191941)"><text x="426.5" y="-751.0" fill="rgb(68,68,68)" class="wj-title" fill-opacity="1" display="block" style="box-sizing: inherit; cursor: default; font-size: 10pt; font-family: &apos;Segoe UI&apos;; font-style: normal; font-weight: normal; display: block; fill: rgb(68, 68, 68); fill-opacity: 1;"/></g><clipPath id="legRect383913" style="box-sizing: inherit;"><rect x="852.0" y="138.5" width="2.0" height="2.0" style="box-sizing: inherit;"/></clipPath><g class="wj-legend" style="box-sizing: inherit;" clip-path="url(#legRect383913)"/><g class="wj-plot-area" style="box-sizing: inherit;"><rect fill="#000000" stroke-width="1" x="60.0" y="45.0" width="776.5" height="175.0" fill-opacity="0" style="box-sizing: inherit;"/></g><g class="wj-axis-x" style="box-sizing: inherit;" clip-path="url(#chartRect191941)"><text x="48.0" y="241.0" fill="rgb(68,68,68)" class="wj-label" fill-opacity="1" display="block" style="box-sizing: inherit; cursor: default; font-size: 9pt; font-family: &apos;Segoe UI&apos;; font-style: normal; font-weight: normal; display: block; fill: rgb(68, 68, 68); fill-opacity: 1;">2000</text><line stroke="rgb(156,156,156)" stroke-width="1px" x1="60.0" x2="60.0" y1="220.0" y2="224.0" class="wj-tick" stroke-opacity="1" stroke-dasharray="none" style="box-sizing: inherit; stroke: rgb(156, 156, 156); stroke-opacity: 1; stroke-width: 1px; stroke-dasharray: none;"/><text x="115.5" y="241.0" fill="rgb(68,68,68)" class="wj-label" fill-opacity="1" display="block" style="box-sizing: inherit; cursor: default; font-size: 9pt; font-family: &apos;Segoe UI&apos;; font-style: normal; font-weight: normal; display: block; fill: rgb(68, 68, 68); fill-opacity: 1;">2002</text><line stroke="rgb(156,156,156)" stroke-width="1px" x1="127.5" x2="127.5" y1="220.0" y2="224.0" class="wj-tick" stroke-opacity="1" stroke-dasharray="none" style="box-sizing: inherit; stroke: rgb(156, 156, 156); stroke-opacity: 1; stroke-width: 1px; stroke-dasharray: none;"/><text x="183.0" y="241.0" fill="rgb(68,68,68)" class="wj-label" fill-opacity="1" display="block" style="box-sizing: inherit; cursor: default; font-size: 9pt; font-family: &apos;Segoe UI&apos;; font-style: normal; font-weight: normal; display: block; fill: rgb(68, 68, 68); fill-opacity: 1;">2004</text><line stroke="rgb(156,156,156)" stroke-width="1px" x1="195.0" x2="195.0" y1="220.0" y2="224.0" class="wj-tick" stroke-opacity="1" stroke-dasharray="none" style="box-sizing: inherit; stroke: rgb(156, 156, 156); stroke-opacity: 1; stroke-width: 1px; stroke-dasharray: none;"/><text x="250.6" y="241.0" fill="rgb(68,68,68)" class="wj-label" fill-opacity="1" display="block" style="box-sizing: inherit; cursor: default; font-size: 9pt; font-family: &apos;Segoe UI&apos;; font-style: normal; font-weight: normal; display: block; fill: rgb(68, 68, 68); fill-opacity: 1;">2006</text><line stroke="rgb(156,156,156)" stroke-width="1px" x1="262.6" x2="262.6" y1="220.0" y2="224.0" class="wj-tick" stroke-opacity="1" stroke-dasharray="none" style="box-sizing: inherit; stroke: rgb(156, 156, 156); stroke-opacity: 1; stroke-width: 1px; stroke-dasharray: none;"/><text x="318.1" y="241.0" fill="rgb(68,68,68)" class="wj-label" fill-opacity="1" display="block" style="box-sizing: inherit; cursor: default; font-size: 9pt; font-family: &apos;Segoe UI&apos;; font-style: normal; font-weight: normal; display: block; fill: rgb(68, 68, 68); fill-opacity: 1;">2008</text><line stroke="rgb(156,156,156)" stroke-width="1px" x1="330.1" x2="330.1" y1="220.0" y2="224.0" class="wj-tick" stroke-opacity="1" stroke-dasharray="none" style="box-sizing: inherit; stroke: rgb(156, 156, 156); stroke-opacity: 1; stroke-width: 1px; stroke-dasharray: none;"/><text x="385.6" y="241.0" fill="rgb(68,68,68)" class="wj-label" fill-opacity="1" display="block" style="box-sizing: inherit; cursor: default; font-size: 9pt; font-family: &apos;Segoe UI&apos;; font-style: normal; font-weight: normal; display: block; fill: rgb(68, 68, 68); fill-opacity: 1;">2010</text><line stroke="rgb(156,156,156)" stroke-width="1px" x1="397.6" x2="397.6" y1="220.0" y2="224.0" class="wj-tick" stroke-opacity="1" stroke-dasharray="none" style="box-sizing: inherit; stroke: rgb(156, 156, 156); stroke-opacity: 1; stroke-width: 1px; stroke-dasharray: none;"/><text x="453.1" y="241.0" fill="rgb(68,68,68)" class="wj-label" fill-opacity="1" display="block" style="box-sizing: inherit; cursor: default; font-size: 9pt; font-family: &apos;Segoe UI&apos;; font-style: normal; font-weight: normal; display: block; fill: rgb(68, 68, 68); fill-opacity: 1;">2012</text><line stroke="rgb(156,156,156)" stroke-width="1px" x1="465.1" x2="465.1" y1="220.0" y2="224.0" class="wj-tick" stroke-opacity="1" stroke-dasharray="none" style="box-sizing: inherit; stroke: rgb(156, 156, 156); stroke-opacity: 1; stroke-width: 1px; stroke-dasharray: none;"/><text x="520.7" y="241.0" fill="rgb(68,68,68)" class="wj-label" fill-opacity="1" display="block" style="box-sizing: inherit; cursor: default; font-size: 9pt; font-family: &apos;Segoe UI&apos;; font-style: normal; font-weight: normal; display: block; fill: rgb(68, 68, 68); fill-opacity: 1;">2014</text><line stroke="rgb(156,156,156)" stroke-width="1px" x1="532.7" x2="532.7" y1="220.0" y2="224.0" class="wj-tick" stroke-opacity="1" stroke-dasharray="none" style="box-sizing: inherit; stroke: rgb(156, 156, 156); stroke-opacity: 1; stroke-width: 1px; stroke-dasharray: none;"/><text x="588.2" y="241.0" fill="rgb(68,68,68)" class="wj-label" fill-opacity="1" display="block" style="box-sizing: inherit; cursor: default; font-size: 9pt; font-family: &apos;Segoe UI&apos;; font-style: normal; font-weight: normal; display: block; fill: rgb(68, 68, 68); fill-opacity: 1;">2016</text><line stroke="rgb(156,156,156)" stroke-width="1px" x1="600.2" x2="600.2" y1="220.0" y2="224.0" class="wj-tick" stroke-opacity="1" stroke-dasharray="none" style="box-sizing: inherit; stroke: rgb(156, 156, 156); stroke-opacity: 1; stroke-width: 1px; stroke-dasharray: none;"/><text x="655.7" y="241.0" fill="rgb(68,68,68)" class="wj-label" fill-opacity="1" display="block" style="box-sizing: inherit; cursor: default; font-size: 9pt; font-family: &apos;Segoe UI&apos;; font-style: normal; font-weight: normal; display: block; fill: rgb(68, 68, 68); fill-opacity: 1;">2018</text><line stroke="rgb(156,156,156)" stroke-width="1px" x1="667.7" x2="667.7" y1="220.0" y2="224.0" class="wj-tick" stroke-opacity="1" stroke-dasharray="none" style="box-sizing: inherit; stroke: rgb(156, 156, 156); stroke-opacity: 1; stroke-width: 1px; stroke-dasharray: none;"/><text x="723.2" y="241.0" fill="rgb(68,68,68)" class="wj-label" fill-opacity="1" display="block" style="box-sizing: inherit; cursor: default; font-size: 9pt; font-family: &apos;Segoe UI&apos;; font-style: normal; font-weight: normal; display: block; fill: rgb(68, 68, 68); fill-opacity: 1;">2020</text><line stroke="rgb(156,156,156)" stroke-width="1px" x1="735.2" x2="735.2" y1="220.0" y2="224.0" class="wj-tick" stroke-opacity="1" stroke-dasharray="none" style="box-sizing: inherit; stroke: rgb(156, 156, 156); stroke-opacity: 1; stroke-width: 1px; stroke-dasharray: none;"/><text x="790.7" y="241.0" fill="rgb(68,68,68)" class="wj-label" fill-opacity="1" display="block" style="box-sizing: inherit; cursor: default; font-size: 9pt; font-family: &apos;Segoe UI&apos;; font-style: normal; font-weight: normal; display: block; fill: rgb(68, 68, 68); fill-opacity: 1;">2022</text><line stroke="rgb(156,156,156)" stroke-width="1px" x1="802.7" x2="802.7" y1="220.0" y2="224.0" class="wj-tick" stroke-opacity="1" stroke-dasharray="none" style="box-sizing: inherit; stroke: rgb(156, 156, 156); stroke-opacity: 1; stroke-width: 1px; stroke-dasharray: none;"/><line stroke="rgb(156,156,156)" stroke-width="1px" x1="60.0" x2="836.5" y1="220.0" y2="220.0" class="wj-line" stroke-opacity="1" stroke-dasharray="none" style="box-sizing: inherit; stroke: rgb(156, 156, 156); stroke-opacity: 1; stroke-width: 1px; stroke-dasharray: none;"/></g><g class="wj-axis-y" style="box-sizing: inherit;" clip-path="url(#chartRect191941)"><line stroke="rgb(225,225,225)" stroke-width="1px" x1="60.0" x2="836.5" y1="216.0" y2="216.0" class="wj-gridline" stroke-opacity="1" stroke-dasharray="none" style="box-sizing: inherit; opacity: 0.75; stroke: rgb(225, 225, 225); stroke-opacity: 1; stroke-width: 1px; stroke-dasharray: none;"/><text x="35.0" y="220.5" fill="rgb(68,68,68)" class="wj-label" fill-opacity="1" display="block" style="box-sizing: inherit; cursor: default; font-size: 9pt; font-family: &apos;Segoe UI&apos;; font-style: normal; font-weight: normal; display: block; fill: rgb(68, 68, 68); fill-opacity: 1;">20</text><line stroke="rgb(225,225,225)" stroke-width="1px" x1="60.0" x2="836.5" y1="180.2" y2="180.2" class="wj-gridline" stroke-opacity="1" stroke-dasharray="none" style="box-sizing: inherit; opacity: 0.75; stroke: rgb(225, 225, 225); stroke-opacity: 1; stroke-width: 1px; stroke-dasharray: none;"/><text x="35.0" y="184.7" fill="rgb(68,68,68)" class="wj-label" fill-opacity="1" display="block" style="box-sizing: inherit; cursor: default; font-size: 9pt; font-family: &apos;Segoe UI&apos;; font-style: normal; font-weight: normal; display: block; fill: rgb(68, 68, 68); fill-opacity: 1;">22</text><line stroke="rgb(225,225,225)" stroke-width="1px" x1="60.0" x2="836.5" y1="144.4" y2="144.4" class="wj-gridline" stroke-opacity="1" stroke-dasharray="none" style="box-sizing: inherit; opacity: 0.75; stroke: rgb(225, 225, 225); stroke-opacity: 1; stroke-width: 1px; stroke-dasharray: none;"/><text x="35.0" y="148.9" fill="rgb(68,68,68)" class="wj-label" fill-opacity="1" display="block" style="box-sizing: inherit; cursor: default; font-size: 9pt; font-family: &apos;Segoe UI&apos;; font-style: normal; font-weight: normal; display: block; fill: rgb(68, 68, 68); fill-opacity: 1;">24</text><line stroke="rgb(225,225,225)" stroke-width="1px" x1="60.0" x2="836.5" y1="108.6" y2="108.6" class="wj-gridline" stroke-opacity="1" stroke-dasharray="none" style="box-sizing: inherit; opacity: 0.75; stroke: rgb(225, 225, 225); stroke-opacity: 1; stroke-width: 1px; stroke-dasharray: none;"/><text x="35.0" y="113.1" fill="rgb(68,68,68)" class="wj-label" fill-opacity="1" display="block" style="box-sizing: inherit; cursor: default; font-size: 9pt; font-family: &apos;Segoe UI&apos;; font-style: normal; font-weight: normal; display: block; fill: rgb(68, 68, 68); fill-opacity: 1;">26</text><line stroke="rgb(225,225,225)" stroke-width="1px" x1="60.0" x2="836.5" y1="72.8" y2="72.8" class="wj-gridline" stroke-opacity="1" stroke-dasharray="none" style="box-sizing: inherit; opacity: 0.75; stroke: rgb(225, 225, 225); stroke-opacity: 1; stroke-width: 1px; stroke-dasharray: none;"/><text x="35.0" y="77.3" fill="rgb(68,68,68)" class="wj-label" fill-opacity="1" display="block" style="box-sizing: inherit; cursor: default; font-size: 9pt; font-family: &apos;Segoe UI&apos;; font-style: normal; font-weight: normal; display: block; fill: rgb(68, 68, 68); fill-opacity: 1;">28</text><g transform="rotate(-90.0,8.5,132.5)" style="box-sizing: inherit;"><text x="-21.0" y="138.0" fill="rgb(68,68,68)" class="wj-title" fill-opacity="1" display="block" style="box-sizing: inherit; cursor: default; font-size: 10pt; font-family: &apos;Segoe UI&apos;; font-style: normal; font-weight: normal; display: block; fill: rgb(68, 68, 68); fill-opacity: 1;">% Women</text></g><line stroke="rgb(156,156,156)" stroke-width="1px" x1="60.0" x2="60.0" y1="45.0" y2="220.0" class="wj-line" stroke-opacity="0" stroke-dasharray="none" style="box-sizing: inherit; stroke: rgb(156, 156, 156); stroke-opacity: 0; stroke-width: 1px; stroke-dasharray: none;"/></g><g class="wj-series-group" style="box-sizing: inherit;"><g class="wj-esri-series-0" style="box-sizing: inherit;"><polyline stroke="rgb(0,112,255)" stroke-width="2" fill="none" points="60.0,204.2 63.1,204.5 67.3,205.2 70.5,205.7 74.0,206.3 77.7,206.7 81.5,206.9 85.2,206.9 88.9,206.6 92.4,205.9 95.7,204.7 98.9,203.0 102.1,200.9 105.4,198.5 108.6,195.9 111.9,193.1 115.1,190.3 118.3,187.5 121.6,184.8 124.8,182.2 128.1,180.0 131.3,177.8 134.5,175.6 137.8,173.3 141.0,171.1 144.3,169.0 147.5,167.0 150.7,165.2 154.0,163.6 157.2,162.3 160.5,161.4 163.7,160.9 167.0,160.9 170.2,161.4 173.4,162.1 176.7,163.1 179.9,164.1 183.2,165.1 186.4,166.0 189.6,166.5 192.9,166.7 196.1,166.4 199.4,165.7 202.6,164.7 205.8,163.5 209.1,162.0 212.3,160.5 215.6,158.9 218.8,157.2 222.1,155.7 225.3,154.3 228.5,153.1 231.8,152.0 235.0,150.8 238.3,149.6 241.5,148.4 244.7,147.3 248.0,146.2 251.2,145.4 254.5,144.7 257.7,144.3 260.9,144.2 264.2,144.5 267.4,145.6 270.7,147.6 273.9,150.0 277.1,152.5 280.4,155.0 283.6,157.2 286.9,158.7 290.1,159.4 293.4,158.8 296.6,156.9 299.8,153.0 303.1,147.2 304.7,143.7 306.3,140.0 307.9,136.0 309.6,131.9 311.2,127.7 312.8,123.4 314.4,119.1 316.0,114.8 317.7,110.7 319.3,106.8 320.9,103.1 322.5,99.7 324.1,96.6 327.4,91.8 330.6,89.2 333.9,88.7 337.1,89.9 340.4,92.5 343.6,96.1 346.8,100.3 350.1,104.8 353.3,109.2 356.6,113.2 359.8,116.3 363.0,118.2 366.3,118.7 369.5,118.3 372.8,117.2 376.0,115.5 379.2,113.4 382.5,111.3 385.7,109.3 389.0,107.5 392.2,106.3 395.4,105.8 398.7,106.2 401.9,107.8 405.2,110.3 408.4,113.5 411.7,117.1 414.9,120.8 418.1,124.3 421.4,127.4 424.6,129.6 427.9,130.8 431.1,130.7 434.3,129.0 437.6,125.9 440.8,121.7 444.1,116.6 447.3,111.0 450.5,105.2 453.8,99.5 457.0,94.2 460.3,89.5 463.5,85.8 466.8,83.3 470.0,81.6 473.2,80.5 476.5,79.9 479.7,79.6 483.0,79.6 486.2,79.8 489.4,80.1 492.7,80.4 495.9,80.5 499.2,80.3 502.4,80.1 505.6,79.9 508.9,79.7 512.1,79.5 515.4,79.3 518.6,79.2 521.8,79.1 525.1,79.0 528.3,79.0 531.6,78.9 534.8,78.9 538.1,79.0 541.3,79.3 544.5,79.5 547.8,79.8 551.0,80.1 554.3,80.3 557.5,80.3 560.7,80.2 564.0,79.9 567.2,79.3 570.5,78.3 573.7,77.0 576.9,75.4 580.2,73.7 583.4,71.9 586.7,70.1 589.9,68.5 593.2,67.1 596.4,65.9 599.6,65.2 602.9,64.9 606.1,65.1 609.4,65.5 612.6,66.2 615.8,67.0 619.1,67.9 622.3,68.8 625.6,69.7 628.8,70.3 632.0,70.8 635.3,70.9 638.5,70.8 641.8,70.6 645.0,70.3 648.2,70.0 651.5,69.5 654.7,69.0 658.0,68.4 661.2,67.9 664.5,67.3 667.7,66.7 670.9,66.0 674.2,65.0 677.4,63.8 680.7,62.6 683.9,61.3 687.1,60.2 690.4,59.4 693.6,58.8 696.9,58.7 700.1,59.2 703.3,60.4 706.6,62.4 709.8,65.1 713.1,68.3 716.3,71.9 719.6,75.5 722.8,79.1 726.0,82.4 729.3,85.3 732.5,87.5 735.8,88.9 739.0,89.5 742.2,89.4 745.5,88.7 748.7,87.8 752.0,86.5 755.2,85.2 758.4,83.9 761.7,82.8 764.9,82.1 768.2,81.8 771.4,82.0 774.7,82.5 777.9,83.3 781.1,84.3 784.4,85.5 787.6,86.7 790.9,87.9 794.1,89.1 797.3,90.2 800.6,91.1 803.8,91.8 807.3,92.4 811.0,92.9 814.7,93.3 818.5,93.7 822.2,94.0 825.7,94.2 829.0,94.5 833.2,94.7 836.4,95.0 " clip-path="url(#plotRect987070)" stroke-dasharray="none" stroke-opacity="1" style="box-sizing: inherit;"/><ellipse stroke="rgb(0,112,255)" stroke-width="2" fill="#0070ff" cx="60.0" cy="204.2" rx="1.5" ry="1.5" stroke-opacity="1" style="box-sizing: inherit;"/><ellipse stroke="rgb(0,112,255)" stroke-width="2" fill="#0070ff" cx="93.8" cy="205.4" rx="1.5" ry="1.5" stroke-opacity="1" style="box-sizing: inherit;"/><ellipse stroke="rgb(0,112,255)" stroke-width="2" fill="#0070ff" cx="127.5" cy="180.4" rx="1.5" ry="1.5" stroke-opacity="1" style="box-sizing: inherit;"/><ellipse stroke="rgb(0,112,255)" stroke-width="2" fill="#0070ff" cx="161.3" cy="161.2" rx="1.5" ry="1.5" stroke-opacity="1" style="box-sizing: inherit;"/><ellipse stroke="rgb(0,112,255)" stroke-width="2" fill="#0070ff" cx="195.0" cy="166.6" rx="1.5" ry="1.5" stroke-opacity="1" style="box-sizing: inherit;"/><ellipse stroke="rgb(0,112,255)" stroke-width="2" fill="#0070ff" cx="228.8" cy="153.0" rx="1.5" ry="1.5" stroke-opacity="1" style="box-sizing: inherit;"/><ellipse stroke="rgb(0,112,255)" stroke-width="2" fill="#0070ff" cx="262.6" cy="144.2" rx="1.5" ry="1.5" stroke-opacity="1" style="box-sizing: inherit;"/><ellipse stroke="rgb(0,112,255)" stroke-width="2" fill="#0070ff" cx="296.3" cy="157.1" rx="1.5" ry="1.5" stroke-opacity="1" style="box-sizing: inherit;"/><ellipse stroke="rgb(0,112,255)" stroke-width="2" fill="#0070ff" cx="330.1" cy="89.5" rx="1.5" ry="1.5" stroke-opacity="1" style="box-sizing: inherit;"/><ellipse stroke="rgb(0,112,255)" stroke-width="2" fill="#0070ff" cx="363.8" cy="118.5" rx="1.5" ry="1.5" stroke-opacity="1" style="box-sizing: inherit;"/><ellipse stroke="rgb(0,112,255)" stroke-width="2" fill="#0070ff" cx="397.6" cy="105.9" rx="1.5" ry="1.5" stroke-opacity="1" style="box-sizing: inherit;"/><ellipse stroke="rgb(0,112,255)" stroke-width="2" fill="#0070ff" cx="431.4" cy="130.6" rx="1.5" ry="1.5" stroke-opacity="1" style="box-sizing: inherit;"/><ellipse stroke="rgb(0,112,255)" stroke-width="2" fill="#0070ff" cx="465.1" cy="84.5" rx="1.5" ry="1.5" stroke-opacity="1" style="box-sizing: inherit;"/><ellipse stroke="rgb(0,112,255)" stroke-width="2" fill="#0070ff" cx="498.9" cy="80.3" rx="1.5" ry="1.5" stroke-opacity="1" style="box-sizing: inherit;"/><ellipse stroke="rgb(0,112,255)" stroke-width="2" fill="#0070ff" cx="532.7" cy="78.9" rx="1.5" ry="1.5" stroke-opacity="1" style="box-sizing: inherit;"/><ellipse stroke="rgb(0,112,255)" stroke-width="2" fill="#0070ff" cx="566.4" cy="79.4" rx="1.5" ry="1.5" stroke-opacity="1" style="box-sizing: inherit;"/><ellipse stroke="rgb(0,112,255)" stroke-width="2" fill="#0070ff" cx="600.2" cy="65.1" rx="1.5" ry="1.5" stroke-opacity="1" style="box-sizing: inherit;"/><ellipse stroke="rgb(0,112,255)" stroke-width="2" fill="#0070ff" cx="633.9" cy="70.9" rx="1.5" ry="1.5" stroke-opacity="1" style="box-sizing: inherit;"/><ellipse stroke="rgb(0,112,255)" stroke-width="2" fill="#0070ff" cx="667.7" cy="66.7" rx="1.5" ry="1.5" stroke-opacity="1" style="box-sizing: inherit;"/><ellipse stroke="rgb(0,112,255)" stroke-width="2" fill="#0070ff" cx="701.5" cy="59.6" rx="1.5" ry="1.5" stroke-opacity="1" style="box-sizing: inherit;"/><ellipse stroke="rgb(0,112,255)" stroke-width="2" fill="#0070ff" cx="735.2" cy="88.7" rx="1.5" ry="1.5" stroke-opacity="1" style="box-sizing: inherit;"/><ellipse stroke="rgb(0,112,255)" stroke-width="2" fill="#0070ff" cx="769.0" cy="81.8" rx="1.5" ry="1.5" stroke-opacity="1" style="box-sizing: inherit;"/><ellipse stroke="rgb(0,112,255)" stroke-width="2" fill="#0070ff" cx="802.7" cy="91.6" rx="1.5" ry="1.5" stroke-opacity="1" style="box-sizing: inherit;"/><ellipse stroke="rgb(0,112,255)" stroke-width="2" fill="#0070ff" cx="836.5" cy="95.0" rx="1.5" ry="1.5" stroke-opacity="1" style="box-sizing: inherit;"/></g></g><clipPath id="plotRect987070" style="box-sizing: inherit;"><rect x="59.0" y="44.0" width="778.5" height="177.0" style="box-sizing: inherit;"/></clipPath><clipPath id="plotRect613417" style="box-sizing: inherit;"><rect x="-1.0" y="-1.0" width="778.5" height="177.0" style="box-sizing: inherit;"/></clipPath><g class="wj-chart-annotationlayer" transform="translate(60, 45)" style="box-sizing: inherit;" clip-path="url(#plotRect613417)"><g class="gcchart-annotation gcchart-anno-shape gcchart-anno-polygon" style="box-sizing: inherit;"><g style="box-sizing: inherit;"><polygon stroke="#000000" stroke-width="1" fill="rgb(245,245,122)" points="0.0,175.0 0.0,0.0 337.6,0.0 337.6,175.0 " class="anno-shape wj-anno-shape" opacity="0.4" stroke-opacity="0" style="box-sizing: inherit;"/></g></g><g class="gcchart-annotation gcchart-anno-shape gcchart-anno-polygon" style="box-sizing: inherit;"><g style="box-sizing: inherit;"><polygon stroke="#000000" stroke-width="1" fill="rgb(255,170,0)" points="438.9,175.0 438.9,0.0 776.5,0.0 776.5,175.0 " class="anno-shape wj-anno-shape" opacity="0.4" stroke-opacity="0" style="box-sizing: inherit;"/></g></g><g class="gcchart-annotation gcchart-anno-shape gcchart-anno-polygon" style="box-sizing: inherit;"><g style="box-sizing: inherit;"><polygon stroke="#000000" stroke-width="1" fill="rgb(255,0,0)" points="236.3,175.0 236.3,0.0 270.1,0.0 270.1,175.0 " class="anno-shape wj-anno-shape" opacity="0.4" stroke-opacity="0" style="box-sizing: inherit;"/></g></g></g></svg>