<svg xmlns="http://www.w3.org/2000/svg" width="858" height="257" style="box-sizing: inherit; font-family: Calibri;"><rect id="backgroundRect" width="100%" height="100%" class="wj-esri-background" x="0" y="0" fill="rgb(255,255,255)" fill-opacity="1" visibility="visible" style="box-sizing: inherit; fill: rgb(255, 255, 255); fill-opacity: 1; display: block;"/><defs style="box-sizing: inherit;"/><clipPath id="chartRect302301" style="box-sizing: inherit;"><rect x="-1.0" y="-1.0" width="855.0" height="251.0" style="box-sizing: inherit;"/></clipPath><g class="wj-header" style="box-sizing: inherit; background: rgb(238, 238, 238); color: rgb(68, 68, 68); font-weight: 700;" clip-path="url(#chartRect302301)"><text x="205.5" y="24.0" fill="rgb(68,68,68)" class="wj-title" fill-opacity="1" display="block" style="box-sizing: inherit; cursor: default; font-size: 16pt; font-family: &apos;Segoe UI&apos;; font-style: normal; font-weight: normal; display: block; fill: rgb(68, 68, 68); fill-opacity: 1;">Timeline of Women in Management in Hungary</text></g><g class="wj-footer" style="box-sizing: inherit;" clip-path="url(#chartRect302301)"><text x="426.5" y="-751.0" fill="rgb(68,68,68)" class="wj-title" fill-opacity="1" display="block" style="box-sizing: inherit; cursor: default; font-size: 10pt; font-family: &apos;Segoe UI&apos;; font-style: normal; font-weight: normal; display: block; fill: rgb(68, 68, 68); fill-opacity: 1;"/></g><clipPath id="legRect939735" style="box-sizing: inherit;"><rect x="852.0" y="138.5" width="2.0" height="2.0" style="box-sizing: inherit;"/></clipPath><g class="wj-legend" style="box-sizing: inherit;" clip-path="url(#legRect939735)"/><g class="wj-plot-area" style="box-sizing: inherit;"><rect fill="#000000" stroke-width="1" x="54.0" y="45.0" width="782.5" height="175.0" fill-opacity="0" style="box-sizing: inherit;"/></g><g class="wj-axis-x" style="box-sizing: inherit;" clip-path="url(#chartRect302301)"><text x="42.0" y="241.0" fill="rgb(68,68,68)" class="wj-label" fill-opacity="1" display="block" style="box-sizing: inherit; cursor: default; font-size: 9pt; font-family: &apos;Segoe UI&apos;; font-style: normal; font-weight: normal; display: block; fill: rgb(68, 68, 68); fill-opacity: 1;">2000</text><line stroke="rgb(156,156,156)" stroke-width="1px" x1="54.0" x2="54.0" y1="220.0" y2="224.0" class="wj-tick" stroke-opacity="1" stroke-dasharray="none" style="box-sizing: inherit; stroke: rgb(156, 156, 156); stroke-opacity: 1; stroke-width: 1px; stroke-dasharray: none;"/><text x="110.0" y="241.0" fill="rgb(68,68,68)" class="wj-label" fill-opacity="1" display="block" style="box-sizing: inherit; cursor: default; font-size: 9pt; font-family: &apos;Segoe UI&apos;; font-style: normal; font-weight: normal; display: block; fill: rgb(68, 68, 68); fill-opacity: 1;">2002</text><line stroke="rgb(156,156,156)" stroke-width="1px" x1="122.0" x2="122.0" y1="220.0" y2="224.0" class="wj-tick" stroke-opacity="1" stroke-dasharray="none" style="box-sizing: inherit; stroke: rgb(156, 156, 156); stroke-opacity: 1; stroke-width: 1px; stroke-dasharray: none;"/><text x="178.1" y="241.0" fill="rgb(68,68,68)" class="wj-label" fill-opacity="1" display="block" style="box-sizing: inherit; cursor: default; font-size: 9pt; font-family: &apos;Segoe UI&apos;; font-style: normal; font-weight: normal; display: block; fill: rgb(68, 68, 68); fill-opacity: 1;">2004</text><line stroke="rgb(156,156,156)" stroke-width="1px" x1="190.1" x2="190.1" y1="220.0" y2="224.0" class="wj-tick" stroke-opacity="1" stroke-dasharray="none" style="box-sizing: inherit; stroke: rgb(156, 156, 156); stroke-opacity: 1; stroke-width: 1px; stroke-dasharray: none;"/><text x="246.1" y="241.0" fill="rgb(68,68,68)" class="wj-label" fill-opacity="1" display="block" style="box-sizing: inherit; cursor: default; font-size: 9pt; font-family: &apos;Segoe UI&apos;; font-style: normal; font-weight: normal; display: block; fill: rgb(68, 68, 68); fill-opacity: 1;">2006</text><line stroke="rgb(156,156,156)" stroke-width="1px" x1="258.1" x2="258.1" y1="220.0" y2="224.0" class="wj-tick" stroke-opacity="1" stroke-dasharray="none" style="box-sizing: inherit; stroke: rgb(156, 156, 156); stroke-opacity: 1; stroke-width: 1px; stroke-dasharray: none;"/><text x="314.2" y="241.0" fill="rgb(68,68,68)" class="wj-label" fill-opacity="1" display="block" style="box-sizing: inherit; cursor: default; font-size: 9pt; font-family: &apos;Segoe UI&apos;; font-style: normal; font-weight: normal; display: block; fill: rgb(68, 68, 68); fill-opacity: 1;">2008</text><line stroke="rgb(156,156,156)" stroke-width="1px" x1="326.2" x2="326.2" y1="220.0" y2="224.0" class="wj-tick" stroke-opacity="1" stroke-dasharray="none" style="box-sizing: inherit; stroke: rgb(156, 156, 156); stroke-opacity: 1; stroke-width: 1px; stroke-dasharray: none;"/><text x="382.2" y="241.0" fill="rgb(68,68,68)" class="wj-label" fill-opacity="1" display="block" style="box-sizing: inherit; cursor: default; font-size: 9pt; font-family: &apos;Segoe UI&apos;; font-style: normal; font-weight: normal; display: block; fill: rgb(68, 68, 68); fill-opacity: 1;">2010</text><line stroke="rgb(156,156,156)" stroke-width="1px" x1="394.2" x2="394.2" y1="220.0" y2="224.0" class="wj-tick" stroke-opacity="1" stroke-dasharray="none" style="box-sizing: inherit; stroke: rgb(156, 156, 156); stroke-opacity: 1; stroke-width: 1px; stroke-dasharray: none;"/><text x="450.3" y="241.0" fill="rgb(68,68,68)" class="wj-label" fill-opacity="1" display="block" style="box-sizing: inherit; cursor: default; font-size: 9pt; font-family: &apos;Segoe UI&apos;; font-style: normal; font-weight: normal; display: block; fill: rgb(68, 68, 68); fill-opacity: 1;">2012</text><line stroke="rgb(156,156,156)" stroke-width="1px" x1="462.3" x2="462.3" y1="220.0" y2="224.0" class="wj-tick" stroke-opacity="1" stroke-dasharray="none" style="box-sizing: inherit; stroke: rgb(156, 156, 156); stroke-opacity: 1; stroke-width: 1px; stroke-dasharray: none;"/><text x="518.3" y="241.0" fill="rgb(68,68,68)" class="wj-label" fill-opacity="1" display="block" style="box-sizing: inherit; cursor: default; font-size: 9pt; font-family: &apos;Segoe UI&apos;; font-style: normal; font-weight: normal; display: block; fill: rgb(68, 68, 68); fill-opacity: 1;">2014</text><line stroke="rgb(156,156,156)" stroke-width="1px" x1="530.3" x2="530.3" y1="220.0" y2="224.0" class="wj-tick" stroke-opacity="1" stroke-dasharray="none" style="box-sizing: inherit; stroke: rgb(156, 156, 156); stroke-opacity: 1; stroke-width: 1px; stroke-dasharray: none;"/><text x="586.3" y="241.0" fill="rgb(68,68,68)" class="wj-label" fill-opacity="1" display="block" style="box-sizing: inherit; cursor: default; font-size: 9pt; font-family: &apos;Segoe UI&apos;; font-style: normal; font-weight: normal; display: block; fill: rgb(68, 68, 68); fill-opacity: 1;">2016</text><line stroke="rgb(156,156,156)" stroke-width="1px" x1="598.3" x2="598.3" y1="220.0" y2="224.0" class="wj-tick" stroke-opacity="1" stroke-dasharray="none" style="box-sizing: inherit; stroke: rgb(156, 156, 156); stroke-opacity: 1; stroke-width: 1px; stroke-dasharray: none;"/><text x="654.4" y="241.0" fill="rgb(68,68,68)" class="wj-label" fill-opacity="1" display="block" style="box-sizing: inherit; cursor: default; font-size: 9pt; font-family: &apos;Segoe UI&apos;; font-style: normal; font-weight: normal; display: block; fill: rgb(68, 68, 68); fill-opacity: 1;">2018</text><line stroke="rgb(156,156,156)" stroke-width="1px" x1="666.4" x2="666.4" y1="220.0" y2="224.0" class="wj-tick" stroke-opacity="1" stroke-dasharray="none" style="box-sizing: inherit; stroke: rgb(156, 156, 156); stroke-opacity: 1; stroke-width: 1px; stroke-dasharray: none;"/><text x="722.4" y="241.0" fill="rgb(68,68,68)" class="wj-label" fill-opacity="1" display="block" style="box-sizing: inherit; cursor: default; font-size: 9pt; font-family: &apos;Segoe UI&apos;; font-style: normal; font-weight: normal; display: block; fill: rgb(68, 68, 68); fill-opacity: 1;">2020</text><line stroke="rgb(156,156,156)" stroke-width="1px" x1="734.4" x2="734.4" y1="220.0" y2="224.0" class="wj-tick" stroke-opacity="1" stroke-dasharray="none" style="box-sizing: inherit; stroke: rgb(156, 156, 156); stroke-opacity: 1; stroke-width: 1px; stroke-dasharray: none;"/><text x="790.5" y="241.0" fill="rgb(68,68,68)" class="wj-label" fill-opacity="1" display="block" style="box-sizing: inherit; cursor: default; font-size: 9pt; font-family: &apos;Segoe UI&apos;; font-style: normal; font-weight: normal; display: block; fill: rgb(68, 68, 68); fill-opacity: 1;">2022</text><line stroke="rgb(156,156,156)" stroke-width="1px" x1="802.5" x2="802.5" y1="220.0" y2="224.0" class="wj-tick" stroke-opacity="1" stroke-dasharray="none" style="box-sizing: inherit; stroke: rgb(156, 156, 156); stroke-opacity: 1; stroke-width: 1px; stroke-dasharray: none;"/><line stroke="rgb(156,156,156)" stroke-width="1px" x1="54.0" x2="836.5" y1="220.0" y2="220.0" class="wj-line" stroke-opacity="1" stroke-dasharray="none" style="box-sizing: inherit; stroke: rgb(156, 156, 156); stroke-opacity: 1; stroke-width: 1px; stroke-dasharray: none;"/></g><g class="wj-axis-y" style="box-sizing: inherit;" clip-path="url(#chartRect302301)"><line stroke="rgb(225,225,225)" stroke-width="1px" x1="54.0" x2="836.5" y1="209.5" y2="209.5" class="wj-gridline" stroke-opacity="1" stroke-dasharray="none" style="box-sizing: inherit; opacity: 0.75; stroke: rgb(225, 225, 225); stroke-opacity: 1; stroke-width: 1px; stroke-dasharray: none;"/><text x="29.0" y="214.0" fill="rgb(68,68,68)" class="wj-label" fill-opacity="1" display="block" style="box-sizing: inherit; cursor: default; font-size: 9pt; font-family: &apos;Segoe UI&apos;; font-style: normal; font-weight: normal; display: block; fill: rgb(68, 68, 68); fill-opacity: 1;">34</text><line stroke="rgb(225,225,225)" stroke-width="1px" x1="54.0" x2="836.5" y1="166.3" y2="166.3" class="wj-gridline" stroke-opacity="1" stroke-dasharray="none" style="box-sizing: inherit; opacity: 0.75; stroke: rgb(225, 225, 225); stroke-opacity: 1; stroke-width: 1px; stroke-dasharray: none;"/><text x="29.0" y="170.8" fill="rgb(68,68,68)" class="wj-label" fill-opacity="1" display="block" style="box-sizing: inherit; cursor: default; font-size: 9pt; font-family: &apos;Segoe UI&apos;; font-style: normal; font-weight: normal; display: block; fill: rgb(68, 68, 68); fill-opacity: 1;">36</text><line stroke="rgb(225,225,225)" stroke-width="1px" x1="54.0" x2="836.5" y1="123.1" y2="123.1" class="wj-gridline" stroke-opacity="1" stroke-dasharray="none" style="box-sizing: inherit; opacity: 0.75; stroke: rgb(225, 225, 225); stroke-opacity: 1; stroke-width: 1px; stroke-dasharray: none;"/><text x="29.0" y="127.6" fill="rgb(68,68,68)" class="wj-label" fill-opacity="1" display="block" style="box-sizing: inherit; cursor: default; font-size: 9pt; font-family: &apos;Segoe UI&apos;; font-style: normal; font-weight: normal; display: block; fill: rgb(68, 68, 68); fill-opacity: 1;">38</text><line stroke="rgb(225,225,225)" stroke-width="1px" x1="54.0" x2="836.5" y1="79.9" y2="79.9" class="wj-gridline" stroke-opacity="1" stroke-dasharray="none" style="box-sizing: inherit; opacity: 0.75; stroke: rgb(225, 225, 225); stroke-opacity: 1; stroke-width: 1px; stroke-dasharray: none;"/><text x="29.0" y="84.4" fill="rgb(68,68,68)" class="wj-label" fill-opacity="1" display="block" style="box-sizing: inherit; cursor: default; font-size: 9pt; font-family: &apos;Segoe UI&apos;; font-style: normal; font-weight: normal; display: block; fill: rgb(68, 68, 68); fill-opacity: 1;">40</text><g transform="rotate(-90.0,8.5,132.5)" style="box-sizing: inherit;"><text x="-21.0" y="138.0" fill="rgb(68,68,68)" class="wj-title" fill-opacity="1" display="block" style="box-sizing: inherit; cursor: default; font-size: 10pt; font-family: &apos;Segoe UI&apos;; font-style: normal; font-weight: normal; display: block; fill: rgb(68, 68, 68); fill-opacity: 1;">% Women</text></g><line stroke="rgb(156,156,156)" stroke-width="1px" x1="54.0" x2="54.0" y1="45.0" y2="220.0" class="wj-line" stroke-opacity="0" stroke-dasharray="none" style="box-sizing: inherit; stroke: rgb(156, 156, 156); stroke-opacity: 0; stroke-width: 1px; stroke-dasharray: none;"/></g><g class="wj-series-group" style="box-sizing: inherit;"><g class="wj-esri-series-0" style="box-sizing: inherit;"><polyline stroke="rgb(0,112,255)" stroke-width="2" fill="none" points="54.0,205.4 55.9,200.9 58.4,194.7 59.8,191.1 61.3,187.3 62.9,183.2 64.6,179.0 66.3,174.6 68.1,170.2 70.0,165.7 71.8,161.3 73.7,156.9 75.6,152.7 77.5,148.6 79.4,144.7 81.3,141.1 83.1,137.9 86.6,132.4 89.9,128.6 93.2,126.0 96.5,124.2 99.7,123.2 103.0,122.8 106.3,122.9 109.5,123.4 112.8,124.1 116.1,124.9 119.3,125.6 122.6,126.2 125.9,126.9 129.1,127.9 132.4,129.2 135.7,130.7 138.9,132.3 142.2,134.0 145.5,135.7 148.7,137.3 152.0,138.9 155.2,140.3 158.5,141.7 161.8,143.6 165.0,145.7 168.3,148.0 171.6,150.1 174.8,152.0 178.1,153.5 181.4,154.4 184.6,154.4 187.9,153.5 191.2,151.4 194.4,147.9 197.7,143.2 201.0,137.6 202.6,134.5 204.2,131.3 205.9,127.9 207.5,124.5 209.1,121.0 210.8,117.6 212.4,114.1 214.0,110.7 215.7,107.4 217.3,104.2 218.9,101.2 222.2,95.6 225.5,91.0 228.7,86.4 232.0,81.8 235.3,77.3 238.5,73.1 241.8,69.2 245.1,65.8 248.3,63.0 251.6,60.9 254.9,59.8 258.1,59.6 261.4,60.9 264.7,64.0 267.9,68.3 271.2,73.5 274.5,79.2 277.7,84.9 281.0,90.3 284.3,95.0 287.5,98.4 290.8,100.4 294.1,100.4 297.3,98.7 300.6,95.5 303.9,91.3 307.1,86.4 310.4,81.2 313.7,76.1 316.9,71.3 320.2,67.3 323.5,64.4 326.7,62.9 330.0,62.8 333.3,63.6 336.5,65.3 339.8,67.5 343.0,70.2 346.3,73.0 349.6,75.7 352.8,78.3 356.1,80.4 359.4,81.8 362.6,82.5 365.9,82.6 369.2,82.2 372.4,81.5 375.7,80.6 379.0,79.8 382.2,79.2 385.5,78.8 388.8,79.0 392.0,79.8 395.3,81.4 398.6,83.6 401.8,86.5 405.1,89.7 408.4,93.4 411.6,97.3 414.9,101.5 418.2,105.7 421.4,109.9 424.7,114.1 428.0,118.0 431.2,122.2 434.5,127.0 437.8,132.3 441.0,137.7 444.3,143.1 447.6,148.1 450.8,152.6 454.1,156.4 457.4,159.1 460.6,160.5 463.9,160.4 467.2,158.5 470.4,155.0 473.7,150.4 477.0,144.9 480.2,139.1 483.5,133.3 486.8,127.8 490.0,123.1 493.3,119.5 496.6,117.4 499.8,116.8 503.1,117.4 506.4,119.0 509.6,121.1 512.9,123.7 516.2,126.3 519.4,128.7 522.7,130.7 525.9,131.9 529.2,132.2 532.5,131.1 535.7,128.8 539.0,125.6 542.3,121.8 545.5,117.5 548.8,113.2 552.1,109.1 555.3,105.4 558.6,102.5 561.9,100.7 565.1,100.2 568.4,101.0 571.7,102.9 574.9,105.7 578.2,109.0 581.5,112.7 584.7,116.6 588.0,120.4 591.3,123.9 594.5,126.8 597.8,128.9 601.1,130.2 604.3,130.8 607.6,131.1 610.9,131.0 614.1,130.7 617.4,130.3 620.7,130.0 623.9,129.8 627.2,129.9 630.5,130.4 633.7,131.4 637.0,132.7 640.3,134.3 643.5,136.1 646.8,138.1 650.1,140.2 653.3,142.4 656.6,144.7 659.9,147.0 663.1,149.2 666.4,151.4 669.7,153.8 672.9,156.5 676.2,159.5 679.5,162.6 682.7,165.7 686.0,168.6 689.3,171.1 692.5,173.2 695.8,174.7 699.1,175.4 702.3,175.1 705.6,173.7 708.9,171.4 712.1,168.3 715.4,164.9 718.6,161.2 721.9,157.7 725.2,154.4 728.4,151.7 731.7,149.8 735.0,149.0 738.2,149.3 741.5,150.5 744.8,152.4 748.0,154.8 751.3,157.4 754.6,160.1 757.8,162.6 761.1,164.6 764.4,166.0 767.6,166.6 770.9,166.2 774.2,165.1 777.4,163.6 780.7,161.6 784.0,159.3 787.2,156.7 790.5,153.9 793.8,151.0 797.0,148.2 800.3,145.4 803.6,142.7 807.1,139.9 810.8,136.7 814.5,133.3 818.4,129.9 822.1,126.4 825.6,123.1 828.9,120.0 833.2,116.0 836.4,113.1 " clip-path="url(#plotRect232614)" stroke-dasharray="none" stroke-opacity="1" style="box-sizing: inherit;"/><ellipse stroke="rgb(0,112,255)" stroke-width="2" fill="#0070ff" cx="54.0" cy="205.4" rx="1.5" ry="1.5" stroke-opacity="1" style="box-sizing: inherit;"/><ellipse stroke="rgb(0,112,255)" stroke-width="2" fill="#0070ff" cx="88.0" cy="130.7" rx="1.5" ry="1.5" stroke-opacity="1" style="box-sizing: inherit;"/><ellipse stroke="rgb(0,112,255)" stroke-width="2" fill="#0070ff" cx="122.0" cy="126.1" rx="1.5" ry="1.5" stroke-opacity="1" style="box-sizing: inherit;"/><ellipse stroke="rgb(0,112,255)" stroke-width="2" fill="#0070ff" cx="156.1" cy="140.6" rx="1.5" ry="1.5" stroke-opacity="1" style="box-sizing: inherit;"/><ellipse stroke="rgb(0,112,255)" stroke-width="2" fill="#0070ff" cx="190.1" cy="152.3" rx="1.5" ry="1.5" stroke-opacity="1" style="box-sizing: inherit;"/><ellipse stroke="rgb(0,112,255)" stroke-width="2" fill="#0070ff" cx="224.1" cy="92.9" rx="1.5" ry="1.5" stroke-opacity="1" style="box-sizing: inherit;"/><ellipse stroke="rgb(0,112,255)" stroke-width="2" fill="#0070ff" cx="258.1" cy="59.6" rx="1.5" ry="1.5" stroke-opacity="1" style="box-sizing: inherit;"/><ellipse stroke="rgb(0,112,255)" stroke-width="2" fill="#0070ff" cx="292.2" cy="100.6" rx="1.5" ry="1.5" stroke-opacity="1" style="box-sizing: inherit;"/><ellipse stroke="rgb(0,112,255)" stroke-width="2" fill="#0070ff" cx="326.2" cy="63.0" rx="1.5" ry="1.5" stroke-opacity="1" style="box-sizing: inherit;"/><ellipse stroke="rgb(0,112,255)" stroke-width="2" fill="#0070ff" cx="360.2" cy="82.1" rx="1.5" ry="1.5" stroke-opacity="1" style="box-sizing: inherit;"/><ellipse stroke="rgb(0,112,255)" stroke-width="2" fill="#0070ff" cx="394.2" cy="80.8" rx="1.5" ry="1.5" stroke-opacity="1" style="box-sizing: inherit;"/><ellipse stroke="rgb(0,112,255)" stroke-width="2" fill="#0070ff" cx="428.2" cy="118.3" rx="1.5" ry="1.5" stroke-opacity="1" style="box-sizing: inherit;"/><ellipse stroke="rgb(0,112,255)" stroke-width="2" fill="#0070ff" cx="462.3" cy="160.7" rx="1.5" ry="1.5" stroke-opacity="1" style="box-sizing: inherit;"/><ellipse stroke="rgb(0,112,255)" stroke-width="2" fill="#0070ff" cx="496.3" cy="117.5" rx="1.5" ry="1.5" stroke-opacity="1" style="box-sizing: inherit;"/><ellipse stroke="rgb(0,112,255)" stroke-width="2" fill="#0070ff" cx="530.3" cy="132.0" rx="1.5" ry="1.5" stroke-opacity="1" style="box-sizing: inherit;"/><ellipse stroke="rgb(0,112,255)" stroke-width="2" fill="#0070ff" cx="564.3" cy="100.2" rx="1.5" ry="1.5" stroke-opacity="1" style="box-sizing: inherit;"/><ellipse stroke="rgb(0,112,255)" stroke-width="2" fill="#0070ff" cx="598.3" cy="129.2" rx="1.5" ry="1.5" stroke-opacity="1" style="box-sizing: inherit;"/><ellipse stroke="rgb(0,112,255)" stroke-width="2" fill="#0070ff" cx="632.4" cy="130.9" rx="1.5" ry="1.5" stroke-opacity="1" style="box-sizing: inherit;"/><ellipse stroke="rgb(0,112,255)" stroke-width="2" fill="#0070ff" cx="666.4" cy="151.4" rx="1.5" ry="1.5" stroke-opacity="1" style="box-sizing: inherit;"/><ellipse stroke="rgb(0,112,255)" stroke-width="2" fill="#0070ff" cx="700.4" cy="175.4" rx="1.5" ry="1.5" stroke-opacity="1" style="box-sizing: inherit;"/><ellipse stroke="rgb(0,112,255)" stroke-width="2" fill="#0070ff" cx="734.4" cy="149.0" rx="1.5" ry="1.5" stroke-opacity="1" style="box-sizing: inherit;"/><ellipse stroke="rgb(0,112,255)" stroke-width="2" fill="#0070ff" cx="768.5" cy="166.5" rx="1.5" ry="1.5" stroke-opacity="1" style="box-sizing: inherit;"/><ellipse stroke="rgb(0,112,255)" stroke-width="2" fill="#0070ff" cx="802.5" cy="143.6" rx="1.5" ry="1.5" stroke-opacity="1" style="box-sizing: inherit;"/><ellipse stroke="rgb(0,112,255)" stroke-width="2" fill="#0070ff" cx="836.5" cy="112.9" rx="1.5" ry="1.5" stroke-opacity="1" style="box-sizing: inherit;"/></g></g><clipPath id="plotRect232614" style="box-sizing: inherit;"><rect x="53.0" y="44.0" width="784.5" height="177.0" style="box-sizing: inherit;"/></clipPath><clipPath id="plotRect428521" style="box-sizing: inherit;"><rect x="-1.0" y="-1.0" width="784.5" height="177.0" style="box-sizing: inherit;"/></clipPath><g class="wj-chart-annotationlayer" transform="translate(54, 45)" style="box-sizing: inherit;" clip-path="url(#plotRect428521)"><g class="gcchart-annotation gcchart-anno-shape gcchart-anno-polygon" style="box-sizing: inherit;"><g style="box-sizing: inherit;"><polygon stroke="#000000" stroke-width="1" fill="rgb(245,245,122)" points="0.0,175.0 0.0,0.0 340.2,0.0 340.2,175.0 " class="anno-shape wj-anno-shape" opacity="0.4" stroke-opacity="0" style="box-sizing: inherit;"/></g></g><g class="gcchart-annotation gcchart-anno-shape gcchart-anno-polygon" style="box-sizing: inherit;"><g style="box-sizing: inherit;"><polygon stroke="#000000" stroke-width="1" fill="rgb(255,170,0)" points="442.3,175.0 442.3,0.0 782.5,0.0 782.5,175.0 " class="anno-shape wj-anno-shape" opacity="0.4" stroke-opacity="0" style="box-sizing: inherit;"/></g></g><g class="gcchart-annotation gcchart-anno-shape gcchart-anno-polygon" style="box-sizing: inherit;"><g style="box-sizing: inherit;"><polygon stroke="#000000" stroke-width="1" fill="rgb(255,0,0)" points="238.2,175.0 238.2,0.0 272.2,0.0 272.2,175.0 " class="anno-shape wj-anno-shape" opacity="0.4" stroke-opacity="0" style="box-sizing: inherit;"/></g></g></g></svg>