<svg xmlns="http://www.w3.org/2000/svg" width="858" height="257" style="box-sizing: inherit; font-family: Calibri;"><rect id="backgroundRect" width="100%" height="100%" class="wj-esri-background" x="0" y="0" fill="rgb(255,255,255)" fill-opacity="1" visibility="visible" style="box-sizing: inherit; fill: rgb(255, 255, 255); fill-opacity: 1; display: block;"/><defs style="box-sizing: inherit;"/><clipPath id="chartRect663104" style="box-sizing: inherit;"><rect x="-1.0" y="-1.0" width="855.0" height="251.0" style="box-sizing: inherit;"/></clipPath><g class="wj-header" style="box-sizing: inherit; background: rgb(238, 238, 238); color: rgb(68, 68, 68); font-weight: 700;" clip-path="url(#chartRect663104)"><text x="218.0" y="24.0" fill="rgb(68,68,68)" class="wj-title" fill-opacity="1" display="block" style="box-sizing: inherit; cursor: default; font-size: 16pt; font-family: &apos;Segoe UI&apos;; font-style: normal; font-weight: normal; display: block; fill: rgb(68, 68, 68); fill-opacity: 1;">Timeline of Women in Management in Latvia</text></g><g class="wj-footer" style="box-sizing: inherit;" clip-path="url(#chartRect663104)"><text x="426.5" y="-751.0" fill="rgb(68,68,68)" class="wj-title" fill-opacity="1" display="block" style="box-sizing: inherit; cursor: default; font-size: 10pt; font-family: &apos;Segoe UI&apos;; font-style: normal; font-weight: normal; display: block; fill: rgb(68, 68, 68); fill-opacity: 1;"/></g><clipPath id="legRect586423" style="box-sizing: inherit;"><rect x="852.0" y="138.5" width="2.0" height="2.0" style="box-sizing: inherit;"/></clipPath><g class="wj-legend" style="box-sizing: inherit;" clip-path="url(#legRect586423)"/><g class="wj-plot-area" style="box-sizing: inherit;"><rect fill="#000000" stroke-width="1" x="60.0" y="45.0" width="776.5" height="175.0" fill-opacity="0" style="box-sizing: inherit;"/></g><g class="wj-axis-x" style="box-sizing: inherit;" clip-path="url(#chartRect663104)"><text x="48.0" y="241.0" fill="rgb(68,68,68)" class="wj-label" fill-opacity="1" display="block" style="box-sizing: inherit; cursor: default; font-size: 9pt; font-family: &apos;Segoe UI&apos;; font-style: normal; font-weight: normal; display: block; fill: rgb(68, 68, 68); fill-opacity: 1;">2000</text><line stroke="rgb(156,156,156)" stroke-width="1px" x1="60.0" x2="60.0" y1="220.0" y2="224.0" class="wj-tick" stroke-opacity="1" stroke-dasharray="none" style="box-sizing: inherit; stroke: rgb(156, 156, 156); stroke-opacity: 1; stroke-width: 1px; stroke-dasharray: none;"/><text x="115.5" y="241.0" fill="rgb(68,68,68)" class="wj-label" fill-opacity="1" display="block" style="box-sizing: inherit; cursor: default; font-size: 9pt; font-family: &apos;Segoe UI&apos;; font-style: normal; font-weight: normal; display: block; fill: rgb(68, 68, 68); fill-opacity: 1;">2002</text><line stroke="rgb(156,156,156)" stroke-width="1px" x1="127.5" x2="127.5" y1="220.0" y2="224.0" class="wj-tick" stroke-opacity="1" stroke-dasharray="none" style="box-sizing: inherit; stroke: rgb(156, 156, 156); stroke-opacity: 1; stroke-width: 1px; stroke-dasharray: none;"/><text x="183.0" y="241.0" fill="rgb(68,68,68)" class="wj-label" fill-opacity="1" display="block" style="box-sizing: inherit; cursor: default; font-size: 9pt; font-family: &apos;Segoe UI&apos;; font-style: normal; font-weight: normal; display: block; fill: rgb(68, 68, 68); fill-opacity: 1;">2004</text><line stroke="rgb(156,156,156)" stroke-width="1px" x1="195.0" x2="195.0" y1="220.0" y2="224.0" class="wj-tick" stroke-opacity="1" stroke-dasharray="none" style="box-sizing: inherit; stroke: rgb(156, 156, 156); stroke-opacity: 1; stroke-width: 1px; stroke-dasharray: none;"/><text x="250.6" y="241.0" fill="rgb(68,68,68)" class="wj-label" fill-opacity="1" display="block" style="box-sizing: inherit; cursor: default; font-size: 9pt; font-family: &apos;Segoe UI&apos;; font-style: normal; font-weight: normal; display: block; fill: rgb(68, 68, 68); fill-opacity: 1;">2006</text><line stroke="rgb(156,156,156)" stroke-width="1px" x1="262.6" x2="262.6" y1="220.0" y2="224.0" class="wj-tick" stroke-opacity="1" stroke-dasharray="none" style="box-sizing: inherit; stroke: rgb(156, 156, 156); stroke-opacity: 1; stroke-width: 1px; stroke-dasharray: none;"/><text x="318.1" y="241.0" fill="rgb(68,68,68)" class="wj-label" fill-opacity="1" display="block" style="box-sizing: inherit; cursor: default; font-size: 9pt; font-family: &apos;Segoe UI&apos;; font-style: normal; font-weight: normal; display: block; fill: rgb(68, 68, 68); fill-opacity: 1;">2008</text><line stroke="rgb(156,156,156)" stroke-width="1px" x1="330.1" x2="330.1" y1="220.0" y2="224.0" class="wj-tick" stroke-opacity="1" stroke-dasharray="none" style="box-sizing: inherit; stroke: rgb(156, 156, 156); stroke-opacity: 1; stroke-width: 1px; stroke-dasharray: none;"/><text x="385.6" y="241.0" fill="rgb(68,68,68)" class="wj-label" fill-opacity="1" display="block" style="box-sizing: inherit; cursor: default; font-size: 9pt; font-family: &apos;Segoe UI&apos;; font-style: normal; font-weight: normal; display: block; fill: rgb(68, 68, 68); fill-opacity: 1;">2010</text><line stroke="rgb(156,156,156)" stroke-width="1px" x1="397.6" x2="397.6" y1="220.0" y2="224.0" class="wj-tick" stroke-opacity="1" stroke-dasharray="none" style="box-sizing: inherit; stroke: rgb(156, 156, 156); stroke-opacity: 1; stroke-width: 1px; stroke-dasharray: none;"/><text x="453.1" y="241.0" fill="rgb(68,68,68)" class="wj-label" fill-opacity="1" display="block" style="box-sizing: inherit; cursor: default; font-size: 9pt; font-family: &apos;Segoe UI&apos;; font-style: normal; font-weight: normal; display: block; fill: rgb(68, 68, 68); fill-opacity: 1;">2012</text><line stroke="rgb(156,156,156)" stroke-width="1px" x1="465.1" x2="465.1" y1="220.0" y2="224.0" class="wj-tick" stroke-opacity="1" stroke-dasharray="none" style="box-sizing: inherit; stroke: rgb(156, 156, 156); stroke-opacity: 1; stroke-width: 1px; stroke-dasharray: none;"/><text x="520.7" y="241.0" fill="rgb(68,68,68)" class="wj-label" fill-opacity="1" display="block" style="box-sizing: inherit; cursor: default; font-size: 9pt; font-family: &apos;Segoe UI&apos;; font-style: normal; font-weight: normal; display: block; fill: rgb(68, 68, 68); fill-opacity: 1;">2014</text><line stroke="rgb(156,156,156)" stroke-width="1px" x1="532.7" x2="532.7" y1="220.0" y2="224.0" class="wj-tick" stroke-opacity="1" stroke-dasharray="none" style="box-sizing: inherit; stroke: rgb(156, 156, 156); stroke-opacity: 1; stroke-width: 1px; stroke-dasharray: none;"/><text x="588.2" y="241.0" fill="rgb(68,68,68)" class="wj-label" fill-opacity="1" display="block" style="box-sizing: inherit; cursor: default; font-size: 9pt; font-family: &apos;Segoe UI&apos;; font-style: normal; font-weight: normal; display: block; fill: rgb(68, 68, 68); fill-opacity: 1;">2016</text><line stroke="rgb(156,156,156)" stroke-width="1px" x1="600.2" x2="600.2" y1="220.0" y2="224.0" class="wj-tick" stroke-opacity="1" stroke-dasharray="none" style="box-sizing: inherit; stroke: rgb(156, 156, 156); stroke-opacity: 1; stroke-width: 1px; stroke-dasharray: none;"/><text x="655.7" y="241.0" fill="rgb(68,68,68)" class="wj-label" fill-opacity="1" display="block" style="box-sizing: inherit; cursor: default; font-size: 9pt; font-family: &apos;Segoe UI&apos;; font-style: normal; font-weight: normal; display: block; fill: rgb(68, 68, 68); fill-opacity: 1;">2018</text><line stroke="rgb(156,156,156)" stroke-width="1px" x1="667.7" x2="667.7" y1="220.0" y2="224.0" class="wj-tick" stroke-opacity="1" stroke-dasharray="none" style="box-sizing: inherit; stroke: rgb(156, 156, 156); stroke-opacity: 1; stroke-width: 1px; stroke-dasharray: none;"/><text x="723.2" y="241.0" fill="rgb(68,68,68)" class="wj-label" fill-opacity="1" display="block" style="box-sizing: inherit; cursor: default; font-size: 9pt; font-family: &apos;Segoe UI&apos;; font-style: normal; font-weight: normal; display: block; fill: rgb(68, 68, 68); fill-opacity: 1;">2020</text><line stroke="rgb(156,156,156)" stroke-width="1px" x1="735.2" x2="735.2" y1="220.0" y2="224.0" class="wj-tick" stroke-opacity="1" stroke-dasharray="none" style="box-sizing: inherit; stroke: rgb(156, 156, 156); stroke-opacity: 1; stroke-width: 1px; stroke-dasharray: none;"/><text x="790.7" y="241.0" fill="rgb(68,68,68)" class="wj-label" fill-opacity="1" display="block" style="box-sizing: inherit; cursor: default; font-size: 9pt; font-family: &apos;Segoe UI&apos;; font-style: normal; font-weight: normal; display: block; fill: rgb(68, 68, 68); fill-opacity: 1;">2022</text><line stroke="rgb(156,156,156)" stroke-width="1px" x1="802.7" x2="802.7" y1="220.0" y2="224.0" class="wj-tick" stroke-opacity="1" stroke-dasharray="none" style="box-sizing: inherit; stroke: rgb(156, 156, 156); stroke-opacity: 1; stroke-width: 1px; stroke-dasharray: none;"/><line stroke="rgb(156,156,156)" stroke-width="1px" x1="60.0" x2="836.5" y1="220.0" y2="220.0" class="wj-line" stroke-opacity="1" stroke-dasharray="none" style="box-sizing: inherit; stroke: rgb(156, 156, 156); stroke-opacity: 1; stroke-width: 1px; stroke-dasharray: none;"/></g><g class="wj-axis-y" style="box-sizing: inherit;" clip-path="url(#chartRect663104)"><line stroke="rgb(225,225,225)" stroke-width="1px" x1="60.0" x2="836.5" y1="177.2" y2="177.2" class="wj-gridline" stroke-opacity="1" stroke-dasharray="none" style="box-sizing: inherit; opacity: 0.75; stroke: rgb(225, 225, 225); stroke-opacity: 1; stroke-width: 1px; stroke-dasharray: none;"/><text x="35.0" y="181.7" fill="rgb(68,68,68)" class="wj-label" fill-opacity="1" display="block" style="box-sizing: inherit; cursor: default; font-size: 9pt; font-family: &apos;Segoe UI&apos;; font-style: normal; font-weight: normal; display: block; fill: rgb(68, 68, 68); fill-opacity: 1;">40</text><line stroke="rgb(225,225,225)" stroke-width="1px" x1="60.0" x2="836.5" y1="129.0" y2="129.0" class="wj-gridline" stroke-opacity="1" stroke-dasharray="none" style="box-sizing: inherit; opacity: 0.75; stroke: rgb(225, 225, 225); stroke-opacity: 1; stroke-width: 1px; stroke-dasharray: none;"/><text x="35.0" y="133.5" fill="rgb(68,68,68)" class="wj-label" fill-opacity="1" display="block" style="box-sizing: inherit; cursor: default; font-size: 9pt; font-family: &apos;Segoe UI&apos;; font-style: normal; font-weight: normal; display: block; fill: rgb(68, 68, 68); fill-opacity: 1;">45</text><line stroke="rgb(225,225,225)" stroke-width="1px" x1="60.0" x2="836.5" y1="80.8" y2="80.8" class="wj-gridline" stroke-opacity="1" stroke-dasharray="none" style="box-sizing: inherit; opacity: 0.75; stroke: rgb(225, 225, 225); stroke-opacity: 1; stroke-width: 1px; stroke-dasharray: none;"/><text x="35.0" y="85.3" fill="rgb(68,68,68)" class="wj-label" fill-opacity="1" display="block" style="box-sizing: inherit; cursor: default; font-size: 9pt; font-family: &apos;Segoe UI&apos;; font-style: normal; font-weight: normal; display: block; fill: rgb(68, 68, 68); fill-opacity: 1;">50</text><g transform="rotate(-90.0,8.5,132.5)" style="box-sizing: inherit;"><text x="-21.0" y="138.0" fill="rgb(68,68,68)" class="wj-title" fill-opacity="1" display="block" style="box-sizing: inherit; cursor: default; font-size: 10pt; font-family: &apos;Segoe UI&apos;; font-style: normal; font-weight: normal; display: block; fill: rgb(68, 68, 68); fill-opacity: 1;">% Women</text></g><line stroke="rgb(156,156,156)" stroke-width="1px" x1="60.0" x2="60.0" y1="45.0" y2="220.0" class="wj-line" stroke-opacity="0" stroke-dasharray="none" style="box-sizing: inherit; stroke: rgb(156, 156, 156); stroke-opacity: 0; stroke-width: 1px; stroke-dasharray: none;"/></g><g class="wj-series-group" style="box-sizing: inherit;"><g class="wj-esri-series-0" style="box-sizing: inherit;"><polyline stroke="rgb(0,112,255)" stroke-width="2" fill="none" points="60.0,205.4 63.1,202.4 67.3,198.0 70.5,194.6 74.0,191.0 77.7,187.5 81.5,184.2 85.2,181.3 88.9,179.1 92.4,177.7 95.7,177.4 98.9,178.5 102.1,180.7 105.4,183.6 108.6,187.0 111.9,190.4 115.1,193.4 118.3,195.8 121.6,197.1 124.8,197.0 128.1,195.1 131.3,191.1 134.5,185.1 136.2,181.5 137.8,177.6 139.4,173.4 141.0,169.1 142.6,164.7 144.3,160.2 145.9,155.7 147.5,151.3 149.1,147.0 150.7,142.9 152.4,139.1 154.0,135.6 155.6,132.4 158.9,127.5 162.1,124.9 165.3,124.3 168.6,125.3 171.8,127.6 175.1,130.9 178.3,134.8 181.5,139.1 184.8,143.4 188.0,147.4 191.3,150.7 194.5,153.1 197.7,154.5 201.0,155.5 204.2,156.1 207.5,156.5 210.7,156.7 213.9,156.7 217.2,156.8 220.4,156.9 223.7,157.1 226.9,157.5 230.2,158.2 233.4,159.2 236.6,160.5 239.9,161.9 243.1,163.3 246.4,164.7 249.6,166.1 252.8,167.2 256.1,168.1 259.3,168.7 262.6,168.9 265.8,168.5 269.0,167.7 272.3,166.5 275.5,165.0 278.8,163.4 282.0,161.7 285.3,160.1 288.5,158.7 291.7,157.6 295.0,157.0 298.2,156.8 301.5,157.1 304.7,157.7 307.9,158.6 311.2,159.6 314.4,160.8 317.7,162.0 320.9,163.1 324.1,164.0 327.4,164.8 330.6,165.2 333.9,165.2 337.1,165.0 340.4,164.5 343.6,163.9 346.8,163.2 350.1,162.7 353.3,162.2 356.6,162.1 359.8,162.3 363.0,162.9 366.3,164.2 369.5,166.4 372.8,169.3 376.0,172.6 379.2,176.0 382.5,179.4 385.7,182.4 389.0,184.8 392.2,186.3 395.4,186.6 398.7,185.5 401.9,182.8 405.2,178.7 408.4,173.6 411.7,167.8 413.3,164.7 414.9,161.5 416.5,158.3 418.1,155.2 419.8,152.1 423.0,146.3 426.2,141.2 429.5,137.1 432.7,134.3 436.0,132.3 439.2,130.9 442.4,129.9 445.7,129.4 448.9,129.3 452.2,129.5 455.4,130.0 458.6,130.7 461.9,131.5 465.1,132.5 468.4,133.8 471.6,135.6 474.9,137.9 478.1,140.5 481.3,143.2 484.6,146.1 487.8,148.8 491.1,151.3 494.3,153.5 497.5,155.2 500.8,156.4 504.0,157.4 507.3,158.2 510.5,158.8 513.7,159.2 517.0,159.4 520.2,159.4 523.5,159.2 526.7,158.8 530.0,158.1 533.2,157.3 536.4,156.0 539.7,154.5 542.9,152.6 546.2,150.5 549.4,148.2 552.6,145.8 555.9,143.4 559.1,141.0 562.4,138.7 565.6,136.6 568.8,134.6 572.1,132.3 575.3,130.0 578.6,127.6 581.8,125.2 585.0,123.0 588.3,120.9 591.5,119.2 594.8,117.8 598.0,116.8 601.3,116.4 604.5,116.5 607.7,117.1 611.0,118.1 614.2,119.3 617.5,120.9 620.7,122.5 623.9,124.2 627.2,125.9 630.4,127.5 633.7,128.9 636.9,130.1 640.1,131.3 643.4,132.5 646.6,133.7 649.9,134.9 653.1,136.1 656.4,137.4 659.6,138.7 662.8,140.0 666.1,141.4 669.3,143.1 672.6,145.6 675.8,148.8 679.0,152.4 682.3,156.0 685.5,159.3 688.8,162.0 692.0,163.8 695.2,164.3 698.5,163.1 701.7,160.1 705.0,154.0 706.6,149.7 708.2,144.8 709.8,139.3 711.4,133.4 713.1,127.1 714.7,120.6 716.3,113.9 717.9,107.2 719.6,100.5 721.2,94.0 722.8,87.7 724.4,81.8 726.0,76.4 727.7,71.6 729.3,67.4 730.9,64.0 734.1,60.0 737.4,60.2 740.6,64.4 742.2,67.7 743.9,71.8 745.5,76.4 747.1,81.6 748.7,87.1 750.3,92.9 752.0,99.0 753.6,105.1 755.2,111.3 756.8,117.4 758.4,123.3 760.1,128.8 761.7,134.0 763.3,138.8 764.9,142.9 766.5,146.3 769.8,150.8 773.0,152.7 776.3,152.8 779.5,151.3 782.8,148.8 786.0,145.6 789.2,142.2 792.5,138.9 795.7,136.1 799.0,134.2 802.2,133.7 805.5,134.6 809.1,136.5 812.8,139.0 816.6,142.1 820.4,145.6 824.0,149.2 827.4,152.7 830.5,156.0 834.4,160.1 " clip-path="url(#plotRect361269)" stroke-dasharray="none" stroke-opacity="1" style="box-sizing: inherit;"/><ellipse stroke="rgb(0,112,255)" stroke-width="2" fill="#0070ff" cx="60.0" cy="205.4" rx="1.5" ry="1.5" stroke-opacity="1" style="box-sizing: inherit;"/><ellipse stroke="rgb(0,112,255)" stroke-width="2" fill="#0070ff" cx="93.8" cy="177.4" rx="1.5" ry="1.5" stroke-opacity="1" style="box-sizing: inherit;"/><ellipse stroke="rgb(0,112,255)" stroke-width="2" fill="#0070ff" cx="127.5" cy="195.6" rx="1.5" ry="1.5" stroke-opacity="1" style="box-sizing: inherit;"/><ellipse stroke="rgb(0,112,255)" stroke-width="2" fill="#0070ff" cx="161.3" cy="125.3" rx="1.5" ry="1.5" stroke-opacity="1" style="box-sizing: inherit;"/><ellipse stroke="rgb(0,112,255)" stroke-width="2" fill="#0070ff" cx="195.0" cy="153.4" rx="1.5" ry="1.5" stroke-opacity="1" style="box-sizing: inherit;"/><ellipse stroke="rgb(0,112,255)" stroke-width="2" fill="#0070ff" cx="228.8" cy="157.9" rx="1.5" ry="1.5" stroke-opacity="1" style="box-sizing: inherit;"/><ellipse stroke="rgb(0,112,255)" stroke-width="2" fill="#0070ff" cx="262.6" cy="168.9" rx="1.5" ry="1.5" stroke-opacity="1" style="box-sizing: inherit;"/><ellipse stroke="rgb(0,112,255)" stroke-width="2" fill="#0070ff" cx="296.3" cy="156.8" rx="1.5" ry="1.5" stroke-opacity="1" style="box-sizing: inherit;"/><ellipse stroke="rgb(0,112,255)" stroke-width="2" fill="#0070ff" cx="330.1" cy="165.1" rx="1.5" ry="1.5" stroke-opacity="1" style="box-sizing: inherit;"/><ellipse stroke="rgb(0,112,255)" stroke-width="2" fill="#0070ff" cx="363.8" cy="163.1" rx="1.5" ry="1.5" stroke-opacity="1" style="box-sizing: inherit;"/><ellipse stroke="rgb(0,112,255)" stroke-width="2" fill="#0070ff" cx="397.6" cy="186.0" rx="1.5" ry="1.5" stroke-opacity="1" style="box-sizing: inherit;"/><ellipse stroke="rgb(0,112,255)" stroke-width="2" fill="#0070ff" cx="431.4" cy="135.3" rx="1.5" ry="1.5" stroke-opacity="1" style="box-sizing: inherit;"/><ellipse stroke="rgb(0,112,255)" stroke-width="2" fill="#0070ff" cx="465.1" cy="132.5" rx="1.5" ry="1.5" stroke-opacity="1" style="box-sizing: inherit;"/><ellipse stroke="rgb(0,112,255)" stroke-width="2" fill="#0070ff" cx="498.9" cy="155.8" rx="1.5" ry="1.5" stroke-opacity="1" style="box-sizing: inherit;"/><ellipse stroke="rgb(0,112,255)" stroke-width="2" fill="#0070ff" cx="532.7" cy="157.4" rx="1.5" ry="1.5" stroke-opacity="1" style="box-sizing: inherit;"/><ellipse stroke="rgb(0,112,255)" stroke-width="2" fill="#0070ff" cx="566.4" cy="136.1" rx="1.5" ry="1.5" stroke-opacity="1" style="box-sizing: inherit;"/><ellipse stroke="rgb(0,112,255)" stroke-width="2" fill="#0070ff" cx="600.2" cy="116.5" rx="1.5" ry="1.5" stroke-opacity="1" style="box-sizing: inherit;"/><ellipse stroke="rgb(0,112,255)" stroke-width="2" fill="#0070ff" cx="633.9" cy="129.0" rx="1.5" ry="1.5" stroke-opacity="1" style="box-sizing: inherit;"/><ellipse stroke="rgb(0,112,255)" stroke-width="2" fill="#0070ff" cx="667.7" cy="142.2" rx="1.5" ry="1.5" stroke-opacity="1" style="box-sizing: inherit;"/><ellipse stroke="rgb(0,112,255)" stroke-width="2" fill="#0070ff" cx="701.5" cy="160.4" rx="1.5" ry="1.5" stroke-opacity="1" style="box-sizing: inherit;"/><ellipse stroke="rgb(0,112,255)" stroke-width="2" fill="#0070ff" cx="735.2" cy="59.6" rx="1.5" ry="1.5" stroke-opacity="1" style="box-sizing: inherit;"/><ellipse stroke="rgb(0,112,255)" stroke-width="2" fill="#0070ff" cx="769.0" cy="150.0" rx="1.5" ry="1.5" stroke-opacity="1" style="box-sizing: inherit;"/><ellipse stroke="rgb(0,112,255)" stroke-width="2" fill="#0070ff" cx="802.7" cy="133.8" rx="1.5" ry="1.5" stroke-opacity="1" style="box-sizing: inherit;"/><ellipse stroke="rgb(0,112,255)" stroke-width="2" fill="#0070ff" cx="836.5" cy="162.0" rx="1.5" ry="1.5" stroke-opacity="1" style="box-sizing: inherit;"/></g></g><clipPath id="plotRect361269" style="box-sizing: inherit;"><rect x="59.0" y="44.0" width="778.5" height="177.0" style="box-sizing: inherit;"/></clipPath><clipPath id="plotRect760312" style="box-sizing: inherit;"><rect x="-1.0" y="-1.0" width="778.5" height="177.0" style="box-sizing: inherit;"/></clipPath><g class="wj-chart-annotationlayer" transform="translate(60, 45)" style="box-sizing: inherit;" clip-path="url(#plotRect760312)"><g class="gcchart-annotation gcchart-anno-shape gcchart-anno-polygon" style="box-sizing: inherit;"><g style="box-sizing: inherit;"><polygon stroke="#000000" stroke-width="1" fill="rgb(245,245,122)" points="0.0,175.0 0.0,0.0 337.6,0.0 337.6,175.0 " class="anno-shape wj-anno-shape" opacity="0.4" stroke-opacity="0" style="box-sizing: inherit;"/></g></g><g class="gcchart-annotation gcchart-anno-shape gcchart-anno-polygon" style="box-sizing: inherit;"><g style="box-sizing: inherit;"><polygon stroke="#000000" stroke-width="1" fill="rgb(255,170,0)" points="438.9,175.0 438.9,0.0 776.5,0.0 776.5,175.0 " class="anno-shape wj-anno-shape" opacity="0.4" stroke-opacity="0" style="box-sizing: inherit;"/></g></g><g class="gcchart-annotation gcchart-anno-shape gcchart-anno-polygon" style="box-sizing: inherit;"><g style="box-sizing: inherit;"><polygon stroke="#000000" stroke-width="1" fill="rgb(255,0,0)" points="236.3,175.0 236.3,0.0 270.1,0.0 270.1,175.0 " class="anno-shape wj-anno-shape" opacity="0.4" stroke-opacity="0" style="box-sizing: inherit;"/></g></g></g></svg>