<svg xmlns="http://www.w3.org/2000/svg" width="858" height="257" style="box-sizing: inherit; font-family: Calibri;"><rect id="backgroundRect" width="100%" height="100%" class="wj-esri-background" x="0" y="0" fill="rgb(255,255,255)" fill-opacity="1" visibility="visible" style="box-sizing: inherit; fill: rgb(255, 255, 255); fill-opacity: 1; display: block;"/><defs style="box-sizing: inherit;"/><clipPath id="chartRect484996" style="box-sizing: inherit;"><rect x="-1.0" y="-1.0" width="855.0" height="251.0" style="box-sizing: inherit;"/></clipPath><g class="wj-header" style="box-sizing: inherit; background: rgb(238, 238, 238); color: rgb(68, 68, 68); font-weight: 700;" clip-path="url(#chartRect484996)"><text x="206.5" y="24.0" fill="rgb(68,68,68)" class="wj-title" fill-opacity="1" display="block" style="box-sizing: inherit; cursor: default; font-size: 16pt; font-family: &apos;Segoe UI&apos;; font-style: normal; font-weight: normal; display: block; fill: rgb(68, 68, 68); fill-opacity: 1;">Timeline of Women in Management in Portugal</text></g><g class="wj-footer" style="box-sizing: inherit;" clip-path="url(#chartRect484996)"><text x="426.5" y="-751.0" fill="rgb(68,68,68)" class="wj-title" fill-opacity="1" display="block" style="box-sizing: inherit; cursor: default; font-size: 10pt; font-family: &apos;Segoe UI&apos;; font-style: normal; font-weight: normal; display: block; fill: rgb(68, 68, 68); fill-opacity: 1;"/></g><clipPath id="legRect986522" style="box-sizing: inherit;"><rect x="852.0" y="138.5" width="2.0" height="2.0" style="box-sizing: inherit;"/></clipPath><g class="wj-legend" style="box-sizing: inherit;" clip-path="url(#legRect986522)"/><g class="wj-plot-area" style="box-sizing: inherit;"><rect fill="#000000" stroke-width="1" x="60.0" y="45.0" width="776.5" height="175.0" fill-opacity="0" style="box-sizing: inherit;"/></g><g class="wj-axis-x" style="box-sizing: inherit;" clip-path="url(#chartRect484996)"><text x="48.0" y="241.0" fill="rgb(68,68,68)" class="wj-label" fill-opacity="1" display="block" style="box-sizing: inherit; cursor: default; font-size: 9pt; font-family: &apos;Segoe UI&apos;; font-style: normal; font-weight: normal; display: block; fill: rgb(68, 68, 68); fill-opacity: 1;">2000</text><line stroke="rgb(156,156,156)" stroke-width="1px" x1="60.0" x2="60.0" y1="220.0" y2="224.0" class="wj-tick" stroke-opacity="1" stroke-dasharray="none" style="box-sizing: inherit; stroke: rgb(156, 156, 156); stroke-opacity: 1; stroke-width: 1px; stroke-dasharray: none;"/><text x="115.5" y="241.0" fill="rgb(68,68,68)" class="wj-label" fill-opacity="1" display="block" style="box-sizing: inherit; cursor: default; font-size: 9pt; font-family: &apos;Segoe UI&apos;; font-style: normal; font-weight: normal; display: block; fill: rgb(68, 68, 68); fill-opacity: 1;">2002</text><line stroke="rgb(156,156,156)" stroke-width="1px" x1="127.5" x2="127.5" y1="220.0" y2="224.0" class="wj-tick" stroke-opacity="1" stroke-dasharray="none" style="box-sizing: inherit; stroke: rgb(156, 156, 156); stroke-opacity: 1; stroke-width: 1px; stroke-dasharray: none;"/><text x="183.0" y="241.0" fill="rgb(68,68,68)" class="wj-label" fill-opacity="1" display="block" style="box-sizing: inherit; cursor: default; font-size: 9pt; font-family: &apos;Segoe UI&apos;; font-style: normal; font-weight: normal; display: block; fill: rgb(68, 68, 68); fill-opacity: 1;">2004</text><line stroke="rgb(156,156,156)" stroke-width="1px" x1="195.0" x2="195.0" y1="220.0" y2="224.0" class="wj-tick" stroke-opacity="1" stroke-dasharray="none" style="box-sizing: inherit; stroke: rgb(156, 156, 156); stroke-opacity: 1; stroke-width: 1px; stroke-dasharray: none;"/><text x="250.6" y="241.0" fill="rgb(68,68,68)" class="wj-label" fill-opacity="1" display="block" style="box-sizing: inherit; cursor: default; font-size: 9pt; font-family: &apos;Segoe UI&apos;; font-style: normal; font-weight: normal; display: block; fill: rgb(68, 68, 68); fill-opacity: 1;">2006</text><line stroke="rgb(156,156,156)" stroke-width="1px" x1="262.6" x2="262.6" y1="220.0" y2="224.0" class="wj-tick" stroke-opacity="1" stroke-dasharray="none" style="box-sizing: inherit; stroke: rgb(156, 156, 156); stroke-opacity: 1; stroke-width: 1px; stroke-dasharray: none;"/><text x="318.1" y="241.0" fill="rgb(68,68,68)" class="wj-label" fill-opacity="1" display="block" style="box-sizing: inherit; cursor: default; font-size: 9pt; font-family: &apos;Segoe UI&apos;; font-style: normal; font-weight: normal; display: block; fill: rgb(68, 68, 68); fill-opacity: 1;">2008</text><line stroke="rgb(156,156,156)" stroke-width="1px" x1="330.1" x2="330.1" y1="220.0" y2="224.0" class="wj-tick" stroke-opacity="1" stroke-dasharray="none" style="box-sizing: inherit; stroke: rgb(156, 156, 156); stroke-opacity: 1; stroke-width: 1px; stroke-dasharray: none;"/><text x="385.6" y="241.0" fill="rgb(68,68,68)" class="wj-label" fill-opacity="1" display="block" style="box-sizing: inherit; cursor: default; font-size: 9pt; font-family: &apos;Segoe UI&apos;; font-style: normal; font-weight: normal; display: block; fill: rgb(68, 68, 68); fill-opacity: 1;">2010</text><line stroke="rgb(156,156,156)" stroke-width="1px" x1="397.6" x2="397.6" y1="220.0" y2="224.0" class="wj-tick" stroke-opacity="1" stroke-dasharray="none" style="box-sizing: inherit; stroke: rgb(156, 156, 156); stroke-opacity: 1; stroke-width: 1px; stroke-dasharray: none;"/><text x="453.1" y="241.0" fill="rgb(68,68,68)" class="wj-label" fill-opacity="1" display="block" style="box-sizing: inherit; cursor: default; font-size: 9pt; font-family: &apos;Segoe UI&apos;; font-style: normal; font-weight: normal; display: block; fill: rgb(68, 68, 68); fill-opacity: 1;">2012</text><line stroke="rgb(156,156,156)" stroke-width="1px" x1="465.1" x2="465.1" y1="220.0" y2="224.0" class="wj-tick" stroke-opacity="1" stroke-dasharray="none" style="box-sizing: inherit; stroke: rgb(156, 156, 156); stroke-opacity: 1; stroke-width: 1px; stroke-dasharray: none;"/><text x="520.7" y="241.0" fill="rgb(68,68,68)" class="wj-label" fill-opacity="1" display="block" style="box-sizing: inherit; cursor: default; font-size: 9pt; font-family: &apos;Segoe UI&apos;; font-style: normal; font-weight: normal; display: block; fill: rgb(68, 68, 68); fill-opacity: 1;">2014</text><line stroke="rgb(156,156,156)" stroke-width="1px" x1="532.7" x2="532.7" y1="220.0" y2="224.0" class="wj-tick" stroke-opacity="1" stroke-dasharray="none" style="box-sizing: inherit; stroke: rgb(156, 156, 156); stroke-opacity: 1; stroke-width: 1px; stroke-dasharray: none;"/><text x="588.2" y="241.0" fill="rgb(68,68,68)" class="wj-label" fill-opacity="1" display="block" style="box-sizing: inherit; cursor: default; font-size: 9pt; font-family: &apos;Segoe UI&apos;; font-style: normal; font-weight: normal; display: block; fill: rgb(68, 68, 68); fill-opacity: 1;">2016</text><line stroke="rgb(156,156,156)" stroke-width="1px" x1="600.2" x2="600.2" y1="220.0" y2="224.0" class="wj-tick" stroke-opacity="1" stroke-dasharray="none" style="box-sizing: inherit; stroke: rgb(156, 156, 156); stroke-opacity: 1; stroke-width: 1px; stroke-dasharray: none;"/><text x="655.7" y="241.0" fill="rgb(68,68,68)" class="wj-label" fill-opacity="1" display="block" style="box-sizing: inherit; cursor: default; font-size: 9pt; font-family: &apos;Segoe UI&apos;; font-style: normal; font-weight: normal; display: block; fill: rgb(68, 68, 68); fill-opacity: 1;">2018</text><line stroke="rgb(156,156,156)" stroke-width="1px" x1="667.7" x2="667.7" y1="220.0" y2="224.0" class="wj-tick" stroke-opacity="1" stroke-dasharray="none" style="box-sizing: inherit; stroke: rgb(156, 156, 156); stroke-opacity: 1; stroke-width: 1px; stroke-dasharray: none;"/><text x="723.2" y="241.0" fill="rgb(68,68,68)" class="wj-label" fill-opacity="1" display="block" style="box-sizing: inherit; cursor: default; font-size: 9pt; font-family: &apos;Segoe UI&apos;; font-style: normal; font-weight: normal; display: block; fill: rgb(68, 68, 68); fill-opacity: 1;">2020</text><line stroke="rgb(156,156,156)" stroke-width="1px" x1="735.2" x2="735.2" y1="220.0" y2="224.0" class="wj-tick" stroke-opacity="1" stroke-dasharray="none" style="box-sizing: inherit; stroke: rgb(156, 156, 156); stroke-opacity: 1; stroke-width: 1px; stroke-dasharray: none;"/><text x="790.7" y="241.0" fill="rgb(68,68,68)" class="wj-label" fill-opacity="1" display="block" style="box-sizing: inherit; cursor: default; font-size: 9pt; font-family: &apos;Segoe UI&apos;; font-style: normal; font-weight: normal; display: block; fill: rgb(68, 68, 68); fill-opacity: 1;">2022</text><line stroke="rgb(156,156,156)" stroke-width="1px" x1="802.7" x2="802.7" y1="220.0" y2="224.0" class="wj-tick" stroke-opacity="1" stroke-dasharray="none" style="box-sizing: inherit; stroke: rgb(156, 156, 156); stroke-opacity: 1; stroke-width: 1px; stroke-dasharray: none;"/><line stroke="rgb(156,156,156)" stroke-width="1px" x1="60.0" x2="836.5" y1="220.0" y2="220.0" class="wj-line" stroke-opacity="1" stroke-dasharray="none" style="box-sizing: inherit; stroke: rgb(156, 156, 156); stroke-opacity: 1; stroke-width: 1px; stroke-dasharray: none;"/></g><g class="wj-axis-y" style="box-sizing: inherit;" clip-path="url(#chartRect484996)"><line stroke="rgb(225,225,225)" stroke-width="1px" x1="60.0" x2="836.5" y1="177.4" y2="177.4" class="wj-gridline" stroke-opacity="1" stroke-dasharray="none" style="box-sizing: inherit; opacity: 0.75; stroke: rgb(225, 225, 225); stroke-opacity: 1; stroke-width: 1px; stroke-dasharray: none;"/><text x="35.0" y="181.9" fill="rgb(68,68,68)" class="wj-label" fill-opacity="1" display="block" style="box-sizing: inherit; cursor: default; font-size: 9pt; font-family: &apos;Segoe UI&apos;; font-style: normal; font-weight: normal; display: block; fill: rgb(68, 68, 68); fill-opacity: 1;">25</text><line stroke="rgb(225,225,225)" stroke-width="1px" x1="60.0" x2="836.5" y1="132.5" y2="132.5" class="wj-gridline" stroke-opacity="1" stroke-dasharray="none" style="box-sizing: inherit; opacity: 0.75; stroke: rgb(225, 225, 225); stroke-opacity: 1; stroke-width: 1px; stroke-dasharray: none;"/><text x="35.0" y="137.0" fill="rgb(68,68,68)" class="wj-label" fill-opacity="1" display="block" style="box-sizing: inherit; cursor: default; font-size: 9pt; font-family: &apos;Segoe UI&apos;; font-style: normal; font-weight: normal; display: block; fill: rgb(68, 68, 68); fill-opacity: 1;">30</text><line stroke="rgb(225,225,225)" stroke-width="1px" x1="60.0" x2="836.5" y1="87.5" y2="87.5" class="wj-gridline" stroke-opacity="1" stroke-dasharray="none" style="box-sizing: inherit; opacity: 0.75; stroke: rgb(225, 225, 225); stroke-opacity: 1; stroke-width: 1px; stroke-dasharray: none;"/><text x="35.0" y="92.0" fill="rgb(68,68,68)" class="wj-label" fill-opacity="1" display="block" style="box-sizing: inherit; cursor: default; font-size: 9pt; font-family: &apos;Segoe UI&apos;; font-style: normal; font-weight: normal; display: block; fill: rgb(68, 68, 68); fill-opacity: 1;">35</text><g transform="rotate(-90.0,8.5,132.5)" style="box-sizing: inherit;"><text x="-21.0" y="138.0" fill="rgb(68,68,68)" class="wj-title" fill-opacity="1" display="block" style="box-sizing: inherit; cursor: default; font-size: 10pt; font-family: &apos;Segoe UI&apos;; font-style: normal; font-weight: normal; display: block; fill: rgb(68, 68, 68); fill-opacity: 1;">% Women</text></g><line stroke="rgb(156,156,156)" stroke-width="1px" x1="60.0" x2="60.0" y1="45.0" y2="220.0" class="wj-line" stroke-opacity="0" stroke-dasharray="none" style="box-sizing: inherit; stroke: rgb(156, 156, 156); stroke-opacity: 0; stroke-width: 1px; stroke-dasharray: none;"/></g><g class="wj-series-group" style="box-sizing: inherit;"><g class="wj-esri-series-0" style="box-sizing: inherit;"><polyline stroke="rgb(0,112,255)" stroke-width="2" fill="none" points="60.0,205.4 63.1,205.2 67.3,205.3 70.5,205.3 74.0,205.3 77.7,205.0 81.5,204.4 85.2,203.4 88.9,201.9 92.4,199.8 95.7,196.8 98.9,192.7 102.1,187.6 105.4,181.9 107.0,178.9 108.6,175.8 110.2,172.7 111.9,169.6 113.5,166.5 116.7,160.7 120.0,155.5 123.2,151.2 126.4,148.1 129.7,146.4 132.9,146.1 136.2,146.8 139.4,148.3 142.6,150.3 145.9,152.6 149.1,154.9 152.4,156.8 155.6,158.3 158.9,158.9 162.1,158.5 165.3,157.1 168.6,154.8 171.8,152.0 175.1,148.8 178.3,145.4 181.5,142.0 184.8,138.8 188.0,135.9 191.3,133.7 194.5,132.2 197.7,131.6 201.0,131.8 204.2,132.5 207.5,133.8 210.7,135.2 213.9,136.8 217.2,138.3 220.4,139.5 223.7,140.3 226.9,140.6 230.2,140.1 233.4,138.8 236.6,137.0 239.9,134.8 243.1,132.2 246.4,129.6 249.6,127.0 252.8,124.5 256.1,122.4 259.3,120.7 262.6,119.6 265.8,119.1 269.0,119.2 272.3,119.6 275.5,120.3 278.8,121.2 282.0,122.2 285.3,123.1 288.5,124.0 291.7,124.7 295.0,125.1 298.2,125.2 301.5,125.3 304.7,125.3 307.9,125.2 311.2,125.1 314.4,124.8 317.7,124.4 320.9,123.8 324.1,122.9 327.4,121.8 330.6,120.3 333.9,118.4 337.1,116.1 340.4,113.3 343.6,110.4 346.8,107.3 350.1,104.2 353.3,101.1 356.6,98.2 359.8,95.6 363.0,93.4 366.3,91.3 369.5,88.8 372.8,86.1 376.0,83.4 379.2,80.9 382.5,78.8 385.7,77.4 389.0,76.8 392.2,77.3 395.4,79.1 398.7,82.4 401.9,88.1 403.6,91.7 405.2,95.7 406.8,100.2 408.4,104.9 410.0,109.9 411.7,115.1 413.3,120.3 414.9,125.7 416.5,131.0 418.1,136.2 419.8,141.2 421.4,146.1 423.0,150.6 424.6,154.8 426.2,158.6 427.9,161.9 431.1,166.7 434.3,169.2 437.6,170.0 440.8,169.3 444.1,167.4 447.3,164.8 450.5,161.7 453.8,158.4 457.0,155.4 460.3,152.8 463.5,151.1 466.8,150.5 470.0,150.7 473.2,151.4 476.5,152.5 479.7,153.8 483.0,155.1 486.2,156.2 489.4,157.0 492.7,157.2 495.9,156.8 499.2,155.5 502.4,153.1 505.6,149.6 508.9,145.3 512.1,140.5 515.4,135.4 518.6,130.4 521.8,125.6 525.1,121.4 528.3,118.0 531.6,115.7 534.8,114.6 538.1,114.8 541.3,115.9 544.5,117.7 547.8,119.9 551.0,122.4 554.3,124.9 557.5,127.1 560.7,128.9 564.0,130.0 567.2,130.1 570.5,129.4 573.7,127.9 576.9,126.0 580.2,123.6 583.4,121.2 586.7,118.7 589.9,116.4 593.2,114.6 596.4,113.3 599.6,112.7 602.9,113.0 606.1,114.1 609.4,115.8 612.6,118.0 615.8,120.4 619.1,122.9 622.3,125.3 625.6,127.5 628.8,129.1 632.0,130.2 635.3,130.4 638.5,130.3 641.8,129.8 645.0,129.0 648.2,128.0 651.5,126.6 654.7,125.0 658.0,123.0 661.2,120.8 664.5,118.3 667.7,115.5 670.9,112.0 674.2,107.5 677.4,102.4 680.7,96.9 683.9,91.3 687.1,85.7 690.4,80.5 693.6,75.9 696.9,72.2 700.1,69.6 703.3,68.4 706.6,68.4 709.8,69.4 713.1,71.2 716.3,73.6 719.6,76.4 722.8,79.3 726.0,82.1 729.3,84.7 732.5,86.7 735.8,88.1 739.0,89.1 742.2,90.1 745.5,91.0 748.7,91.8 752.0,92.3 755.2,92.7 758.4,92.8 761.7,92.7 764.9,92.2 768.2,91.4 771.4,90.2 774.7,88.3 777.9,85.9 781.1,83.1 784.4,80.2 787.6,77.1 790.9,74.0 794.1,71.2 797.3,68.6 800.6,66.4 803.8,64.8 807.3,63.5 811.0,62.5 814.7,61.7 818.5,61.2 822.2,60.8 825.7,60.4 829.0,60.2 833.2,59.9 836.4,59.6 " clip-path="url(#plotRect43608)" stroke-dasharray="none" stroke-opacity="1" style="box-sizing: inherit;"/><ellipse stroke="rgb(0,112,255)" stroke-width="2" fill="#0070ff" cx="60.0" cy="205.4" rx="1.5" ry="1.5" stroke-opacity="1" style="box-sizing: inherit;"/><ellipse stroke="rgb(0,112,255)" stroke-width="2" fill="#0070ff" cx="93.8" cy="198.7" rx="1.5" ry="1.5" stroke-opacity="1" style="box-sizing: inherit;"/><ellipse stroke="rgb(0,112,255)" stroke-width="2" fill="#0070ff" cx="127.5" cy="147.4" rx="1.5" ry="1.5" stroke-opacity="1" style="box-sizing: inherit;"/><ellipse stroke="rgb(0,112,255)" stroke-width="2" fill="#0070ff" cx="161.3" cy="158.7" rx="1.5" ry="1.5" stroke-opacity="1" style="box-sizing: inherit;"/><ellipse stroke="rgb(0,112,255)" stroke-width="2" fill="#0070ff" cx="195.0" cy="132.0" rx="1.5" ry="1.5" stroke-opacity="1" style="box-sizing: inherit;"/><ellipse stroke="rgb(0,112,255)" stroke-width="2" fill="#0070ff" cx="228.8" cy="140.4" rx="1.5" ry="1.5" stroke-opacity="1" style="box-sizing: inherit;"/><ellipse stroke="rgb(0,112,255)" stroke-width="2" fill="#0070ff" cx="262.6" cy="119.6" rx="1.5" ry="1.5" stroke-opacity="1" style="box-sizing: inherit;"/><ellipse stroke="rgb(0,112,255)" stroke-width="2" fill="#0070ff" cx="296.3" cy="125.2" rx="1.5" ry="1.5" stroke-opacity="1" style="box-sizing: inherit;"/><ellipse stroke="rgb(0,112,255)" stroke-width="2" fill="#0070ff" cx="330.1" cy="120.6" rx="1.5" ry="1.5" stroke-opacity="1" style="box-sizing: inherit;"/><ellipse stroke="rgb(0,112,255)" stroke-width="2" fill="#0070ff" cx="363.8" cy="92.9" rx="1.5" ry="1.5" stroke-opacity="1" style="box-sizing: inherit;"/><ellipse stroke="rgb(0,112,255)" stroke-width="2" fill="#0070ff" cx="397.6" cy="81.1" rx="1.5" ry="1.5" stroke-opacity="1" style="box-sizing: inherit;"/><ellipse stroke="rgb(0,112,255)" stroke-width="2" fill="#0070ff" cx="431.4" cy="167.0" rx="1.5" ry="1.5" stroke-opacity="1" style="box-sizing: inherit;"/><ellipse stroke="rgb(0,112,255)" stroke-width="2" fill="#0070ff" cx="465.1" cy="150.7" rx="1.5" ry="1.5" stroke-opacity="1" style="box-sizing: inherit;"/><ellipse stroke="rgb(0,112,255)" stroke-width="2" fill="#0070ff" cx="498.9" cy="155.7" rx="1.5" ry="1.5" stroke-opacity="1" style="box-sizing: inherit;"/><ellipse stroke="rgb(0,112,255)" stroke-width="2" fill="#0070ff" cx="532.7" cy="115.2" rx="1.5" ry="1.5" stroke-opacity="1" style="box-sizing: inherit;"/><ellipse stroke="rgb(0,112,255)" stroke-width="2" fill="#0070ff" cx="566.4" cy="130.2" rx="1.5" ry="1.5" stroke-opacity="1" style="box-sizing: inherit;"/><ellipse stroke="rgb(0,112,255)" stroke-width="2" fill="#0070ff" cx="600.2" cy="112.7" rx="1.5" ry="1.5" stroke-opacity="1" style="box-sizing: inherit;"/><ellipse stroke="rgb(0,112,255)" stroke-width="2" fill="#0070ff" cx="633.9" cy="130.4" rx="1.5" ry="1.5" stroke-opacity="1" style="box-sizing: inherit;"/><ellipse stroke="rgb(0,112,255)" stroke-width="2" fill="#0070ff" cx="667.7" cy="115.5" rx="1.5" ry="1.5" stroke-opacity="1" style="box-sizing: inherit;"/><ellipse stroke="rgb(0,112,255)" stroke-width="2" fill="#0070ff" cx="701.5" cy="68.9" rx="1.5" ry="1.5" stroke-opacity="1" style="box-sizing: inherit;"/><ellipse stroke="rgb(0,112,255)" stroke-width="2" fill="#0070ff" cx="735.2" cy="87.9" rx="1.5" ry="1.5" stroke-opacity="1" style="box-sizing: inherit;"/><ellipse stroke="rgb(0,112,255)" stroke-width="2" fill="#0070ff" cx="769.0" cy="91.2" rx="1.5" ry="1.5" stroke-opacity="1" style="box-sizing: inherit;"/><ellipse stroke="rgb(0,112,255)" stroke-width="2" fill="#0070ff" cx="802.7" cy="65.3" rx="1.5" ry="1.5" stroke-opacity="1" style="box-sizing: inherit;"/><ellipse stroke="rgb(0,112,255)" stroke-width="2" fill="#0070ff" cx="836.5" cy="59.6" rx="1.5" ry="1.5" stroke-opacity="1" style="box-sizing: inherit;"/></g></g><clipPath id="plotRect43608" style="box-sizing: inherit;"><rect x="59.0" y="44.0" width="778.5" height="177.0" style="box-sizing: inherit;"/></clipPath><clipPath id="plotRect560600" style="box-sizing: inherit;"><rect x="-1.0" y="-1.0" width="778.5" height="177.0" style="box-sizing: inherit;"/></clipPath><g class="wj-chart-annotationlayer" transform="translate(60, 45)" style="box-sizing: inherit;" clip-path="url(#plotRect560600)"><g class="gcchart-annotation gcchart-anno-shape gcchart-anno-polygon" style="box-sizing: inherit;"><g style="box-sizing: inherit;"><polygon stroke="#000000" stroke-width="1" fill="rgb(245,245,122)" points="0.0,175.0 0.0,0.0 337.6,0.0 337.6,175.0 " class="anno-shape wj-anno-shape" opacity="0.4" stroke-opacity="0" style="box-sizing: inherit;"/></g></g><g class="gcchart-annotation gcchart-anno-shape gcchart-anno-polygon" style="box-sizing: inherit;"><g style="box-sizing: inherit;"><polygon stroke="#000000" stroke-width="1" fill="rgb(255,170,0)" points="438.9,175.0 438.9,0.0 776.5,0.0 776.5,175.0 " class="anno-shape wj-anno-shape" opacity="0.4" stroke-opacity="0" style="box-sizing: inherit;"/></g></g><g class="gcchart-annotation gcchart-anno-shape gcchart-anno-polygon" style="box-sizing: inherit;"><g style="box-sizing: inherit;"><polygon stroke="#000000" stroke-width="1" fill="rgb(255,0,0)" points="236.3,175.0 236.3,0.0 270.1,0.0 270.1,175.0 " class="anno-shape wj-anno-shape" opacity="0.4" stroke-opacity="0" style="box-sizing: inherit;"/></g></g></g></svg>