<svg xmlns="http://www.w3.org/2000/svg" width="858" height="257" style="box-sizing: inherit; font-family: Calibri;"><rect id="backgroundRect" width="100%" height="100%" class="wj-esri-background" x="0" y="0" fill="rgb(255,255,255)" fill-opacity="1" visibility="visible" style="box-sizing: inherit; fill: rgb(255, 255, 255); fill-opacity: 1; display: block;"/><defs style="box-sizing: inherit;"/><clipPath id="chartRect810273" style="box-sizing: inherit;"><rect x="-1.0" y="-1.0" width="855.0" height="251.0" style="box-sizing: inherit;"/></clipPath><g class="wj-header" style="box-sizing: inherit; background: rgb(238, 238, 238); color: rgb(68, 68, 68); font-weight: 700;" clip-path="url(#chartRect810273)"><text x="207.5" y="24.0" fill="rgb(68,68,68)" class="wj-title" fill-opacity="1" display="block" style="box-sizing: inherit; cursor: default; font-size: 16pt; font-family: &apos;Segoe UI&apos;; font-style: normal; font-weight: normal; display: block; fill: rgb(68, 68, 68); fill-opacity: 1;">Timeline of Women in Management in Slovakia</text></g><g class="wj-footer" style="box-sizing: inherit;" clip-path="url(#chartRect810273)"><text x="426.5" y="-751.0" fill="rgb(68,68,68)" class="wj-title" fill-opacity="1" display="block" style="box-sizing: inherit; cursor: default; font-size: 10pt; font-family: &apos;Segoe UI&apos;; font-style: normal; font-weight: normal; display: block; fill: rgb(68, 68, 68); fill-opacity: 1;"/></g><clipPath id="legRect8921" style="box-sizing: inherit;"><rect x="852.0" y="138.5" width="2.0" height="2.0" style="box-sizing: inherit;"/></clipPath><g class="wj-legend" style="box-sizing: inherit;" clip-path="url(#legRect8921)"/><g class="wj-plot-area" style="box-sizing: inherit;"><rect fill="#000000" stroke-width="1" x="60.0" y="45.0" width="776.5" height="175.0" fill-opacity="0" style="box-sizing: inherit;"/></g><g class="wj-axis-x" style="box-sizing: inherit;" clip-path="url(#chartRect810273)"><text x="48.0" y="241.0" fill="rgb(68,68,68)" class="wj-label" fill-opacity="1" display="block" style="box-sizing: inherit; cursor: default; font-size: 9pt; font-family: &apos;Segoe UI&apos;; font-style: normal; font-weight: normal; display: block; fill: rgb(68, 68, 68); fill-opacity: 1;">2000</text><line stroke="rgb(156,156,156)" stroke-width="1px" x1="60.0" x2="60.0" y1="220.0" y2="224.0" class="wj-tick" stroke-opacity="1" stroke-dasharray="none" style="box-sizing: inherit; stroke: rgb(156, 156, 156); stroke-opacity: 1; stroke-width: 1px; stroke-dasharray: none;"/><text x="115.5" y="241.0" fill="rgb(68,68,68)" class="wj-label" fill-opacity="1" display="block" style="box-sizing: inherit; cursor: default; font-size: 9pt; font-family: &apos;Segoe UI&apos;; font-style: normal; font-weight: normal; display: block; fill: rgb(68, 68, 68); fill-opacity: 1;">2002</text><line stroke="rgb(156,156,156)" stroke-width="1px" x1="127.5" x2="127.5" y1="220.0" y2="224.0" class="wj-tick" stroke-opacity="1" stroke-dasharray="none" style="box-sizing: inherit; stroke: rgb(156, 156, 156); stroke-opacity: 1; stroke-width: 1px; stroke-dasharray: none;"/><text x="183.0" y="241.0" fill="rgb(68,68,68)" class="wj-label" fill-opacity="1" display="block" style="box-sizing: inherit; cursor: default; font-size: 9pt; font-family: &apos;Segoe UI&apos;; font-style: normal; font-weight: normal; display: block; fill: rgb(68, 68, 68); fill-opacity: 1;">2004</text><line stroke="rgb(156,156,156)" stroke-width="1px" x1="195.0" x2="195.0" y1="220.0" y2="224.0" class="wj-tick" stroke-opacity="1" stroke-dasharray="none" style="box-sizing: inherit; stroke: rgb(156, 156, 156); stroke-opacity: 1; stroke-width: 1px; stroke-dasharray: none;"/><text x="250.6" y="241.0" fill="rgb(68,68,68)" class="wj-label" fill-opacity="1" display="block" style="box-sizing: inherit; cursor: default; font-size: 9pt; font-family: &apos;Segoe UI&apos;; font-style: normal; font-weight: normal; display: block; fill: rgb(68, 68, 68); fill-opacity: 1;">2006</text><line stroke="rgb(156,156,156)" stroke-width="1px" x1="262.6" x2="262.6" y1="220.0" y2="224.0" class="wj-tick" stroke-opacity="1" stroke-dasharray="none" style="box-sizing: inherit; stroke: rgb(156, 156, 156); stroke-opacity: 1; stroke-width: 1px; stroke-dasharray: none;"/><text x="318.1" y="241.0" fill="rgb(68,68,68)" class="wj-label" fill-opacity="1" display="block" style="box-sizing: inherit; cursor: default; font-size: 9pt; font-family: &apos;Segoe UI&apos;; font-style: normal; font-weight: normal; display: block; fill: rgb(68, 68, 68); fill-opacity: 1;">2008</text><line stroke="rgb(156,156,156)" stroke-width="1px" x1="330.1" x2="330.1" y1="220.0" y2="224.0" class="wj-tick" stroke-opacity="1" stroke-dasharray="none" style="box-sizing: inherit; stroke: rgb(156, 156, 156); stroke-opacity: 1; stroke-width: 1px; stroke-dasharray: none;"/><text x="385.6" y="241.0" fill="rgb(68,68,68)" class="wj-label" fill-opacity="1" display="block" style="box-sizing: inherit; cursor: default; font-size: 9pt; font-family: &apos;Segoe UI&apos;; font-style: normal; font-weight: normal; display: block; fill: rgb(68, 68, 68); fill-opacity: 1;">2010</text><line stroke="rgb(156,156,156)" stroke-width="1px" x1="397.6" x2="397.6" y1="220.0" y2="224.0" class="wj-tick" stroke-opacity="1" stroke-dasharray="none" style="box-sizing: inherit; stroke: rgb(156, 156, 156); stroke-opacity: 1; stroke-width: 1px; stroke-dasharray: none;"/><text x="453.1" y="241.0" fill="rgb(68,68,68)" class="wj-label" fill-opacity="1" display="block" style="box-sizing: inherit; cursor: default; font-size: 9pt; font-family: &apos;Segoe UI&apos;; font-style: normal; font-weight: normal; display: block; fill: rgb(68, 68, 68); fill-opacity: 1;">2012</text><line stroke="rgb(156,156,156)" stroke-width="1px" x1="465.1" x2="465.1" y1="220.0" y2="224.0" class="wj-tick" stroke-opacity="1" stroke-dasharray="none" style="box-sizing: inherit; stroke: rgb(156, 156, 156); stroke-opacity: 1; stroke-width: 1px; stroke-dasharray: none;"/><text x="520.7" y="241.0" fill="rgb(68,68,68)" class="wj-label" fill-opacity="1" display="block" style="box-sizing: inherit; cursor: default; font-size: 9pt; font-family: &apos;Segoe UI&apos;; font-style: normal; font-weight: normal; display: block; fill: rgb(68, 68, 68); fill-opacity: 1;">2014</text><line stroke="rgb(156,156,156)" stroke-width="1px" x1="532.7" x2="532.7" y1="220.0" y2="224.0" class="wj-tick" stroke-opacity="1" stroke-dasharray="none" style="box-sizing: inherit; stroke: rgb(156, 156, 156); stroke-opacity: 1; stroke-width: 1px; stroke-dasharray: none;"/><text x="588.2" y="241.0" fill="rgb(68,68,68)" class="wj-label" fill-opacity="1" display="block" style="box-sizing: inherit; cursor: default; font-size: 9pt; font-family: &apos;Segoe UI&apos;; font-style: normal; font-weight: normal; display: block; fill: rgb(68, 68, 68); fill-opacity: 1;">2016</text><line stroke="rgb(156,156,156)" stroke-width="1px" x1="600.2" x2="600.2" y1="220.0" y2="224.0" class="wj-tick" stroke-opacity="1" stroke-dasharray="none" style="box-sizing: inherit; stroke: rgb(156, 156, 156); stroke-opacity: 1; stroke-width: 1px; stroke-dasharray: none;"/><text x="655.7" y="241.0" fill="rgb(68,68,68)" class="wj-label" fill-opacity="1" display="block" style="box-sizing: inherit; cursor: default; font-size: 9pt; font-family: &apos;Segoe UI&apos;; font-style: normal; font-weight: normal; display: block; fill: rgb(68, 68, 68); fill-opacity: 1;">2018</text><line stroke="rgb(156,156,156)" stroke-width="1px" x1="667.7" x2="667.7" y1="220.0" y2="224.0" class="wj-tick" stroke-opacity="1" stroke-dasharray="none" style="box-sizing: inherit; stroke: rgb(156, 156, 156); stroke-opacity: 1; stroke-width: 1px; stroke-dasharray: none;"/><text x="723.2" y="241.0" fill="rgb(68,68,68)" class="wj-label" fill-opacity="1" display="block" style="box-sizing: inherit; cursor: default; font-size: 9pt; font-family: &apos;Segoe UI&apos;; font-style: normal; font-weight: normal; display: block; fill: rgb(68, 68, 68); fill-opacity: 1;">2020</text><line stroke="rgb(156,156,156)" stroke-width="1px" x1="735.2" x2="735.2" y1="220.0" y2="224.0" class="wj-tick" stroke-opacity="1" stroke-dasharray="none" style="box-sizing: inherit; stroke: rgb(156, 156, 156); stroke-opacity: 1; stroke-width: 1px; stroke-dasharray: none;"/><text x="790.7" y="241.0" fill="rgb(68,68,68)" class="wj-label" fill-opacity="1" display="block" style="box-sizing: inherit; cursor: default; font-size: 9pt; font-family: &apos;Segoe UI&apos;; font-style: normal; font-weight: normal; display: block; fill: rgb(68, 68, 68); fill-opacity: 1;">2022</text><line stroke="rgb(156,156,156)" stroke-width="1px" x1="802.7" x2="802.7" y1="220.0" y2="224.0" class="wj-tick" stroke-opacity="1" stroke-dasharray="none" style="box-sizing: inherit; stroke: rgb(156, 156, 156); stroke-opacity: 1; stroke-width: 1px; stroke-dasharray: none;"/><line stroke="rgb(156,156,156)" stroke-width="1px" x1="60.0" x2="836.5" y1="220.0" y2="220.0" class="wj-line" stroke-opacity="1" stroke-dasharray="none" style="box-sizing: inherit; stroke: rgb(156, 156, 156); stroke-opacity: 1; stroke-width: 1px; stroke-dasharray: none;"/></g><g class="wj-axis-y" style="box-sizing: inherit;" clip-path="url(#chartRect810273)"><line stroke="rgb(225,225,225)" stroke-width="1px" x1="60.0" x2="836.5" y1="194.6" y2="194.6" class="wj-gridline" stroke-opacity="1" stroke-dasharray="none" style="box-sizing: inherit; opacity: 0.75; stroke: rgb(225, 225, 225); stroke-opacity: 1; stroke-width: 1px; stroke-dasharray: none;"/><text x="35.0" y="199.1" fill="rgb(68,68,68)" class="wj-label" fill-opacity="1" display="block" style="box-sizing: inherit; cursor: default; font-size: 9pt; font-family: &apos;Segoe UI&apos;; font-style: normal; font-weight: normal; display: block; fill: rgb(68, 68, 68); fill-opacity: 1;">28</text><line stroke="rgb(225,225,225)" stroke-width="1px" x1="60.0" x2="836.5" y1="159.0" y2="159.0" class="wj-gridline" stroke-opacity="1" stroke-dasharray="none" style="box-sizing: inherit; opacity: 0.75; stroke: rgb(225, 225, 225); stroke-opacity: 1; stroke-width: 1px; stroke-dasharray: none;"/><text x="35.0" y="163.5" fill="rgb(68,68,68)" class="wj-label" fill-opacity="1" display="block" style="box-sizing: inherit; cursor: default; font-size: 9pt; font-family: &apos;Segoe UI&apos;; font-style: normal; font-weight: normal; display: block; fill: rgb(68, 68, 68); fill-opacity: 1;">30</text><line stroke="rgb(225,225,225)" stroke-width="1px" x1="60.0" x2="836.5" y1="123.4" y2="123.4" class="wj-gridline" stroke-opacity="1" stroke-dasharray="none" style="box-sizing: inherit; opacity: 0.75; stroke: rgb(225, 225, 225); stroke-opacity: 1; stroke-width: 1px; stroke-dasharray: none;"/><text x="35.0" y="127.9" fill="rgb(68,68,68)" class="wj-label" fill-opacity="1" display="block" style="box-sizing: inherit; cursor: default; font-size: 9pt; font-family: &apos;Segoe UI&apos;; font-style: normal; font-weight: normal; display: block; fill: rgb(68, 68, 68); fill-opacity: 1;">32</text><line stroke="rgb(225,225,225)" stroke-width="1px" x1="60.0" x2="836.5" y1="87.9" y2="87.9" class="wj-gridline" stroke-opacity="1" stroke-dasharray="none" style="box-sizing: inherit; opacity: 0.75; stroke: rgb(225, 225, 225); stroke-opacity: 1; stroke-width: 1px; stroke-dasharray: none;"/><text x="35.0" y="92.4" fill="rgb(68,68,68)" class="wj-label" fill-opacity="1" display="block" style="box-sizing: inherit; cursor: default; font-size: 9pt; font-family: &apos;Segoe UI&apos;; font-style: normal; font-weight: normal; display: block; fill: rgb(68, 68, 68); fill-opacity: 1;">34</text><line stroke="rgb(225,225,225)" stroke-width="1px" x1="60.0" x2="836.5" y1="52.3" y2="52.3" class="wj-gridline" stroke-opacity="1" stroke-dasharray="none" style="box-sizing: inherit; opacity: 0.75; stroke: rgb(225, 225, 225); stroke-opacity: 1; stroke-width: 1px; stroke-dasharray: none;"/><text x="35.0" y="56.8" fill="rgb(68,68,68)" class="wj-label" fill-opacity="1" display="block" style="box-sizing: inherit; cursor: default; font-size: 9pt; font-family: &apos;Segoe UI&apos;; font-style: normal; font-weight: normal; display: block; fill: rgb(68, 68, 68); fill-opacity: 1;">36</text><g transform="rotate(-90.0,8.5,132.5)" style="box-sizing: inherit;"><text x="-21.0" y="138.0" fill="rgb(68,68,68)" class="wj-title" fill-opacity="1" display="block" style="box-sizing: inherit; cursor: default; font-size: 10pt; font-family: &apos;Segoe UI&apos;; font-style: normal; font-weight: normal; display: block; fill: rgb(68, 68, 68); fill-opacity: 1;">% Women</text></g><line stroke="rgb(156,156,156)" stroke-width="1px" x1="60.0" x2="60.0" y1="45.0" y2="220.0" class="wj-line" stroke-opacity="0" stroke-dasharray="none" style="box-sizing: inherit; stroke: rgb(156, 156, 156); stroke-opacity: 0; stroke-width: 1px; stroke-dasharray: none;"/></g><g class="wj-series-group" style="box-sizing: inherit;"><g class="wj-esri-series-0" style="box-sizing: inherit;"><polyline stroke="rgb(0,112,255)" stroke-width="2" fill="none" points="60.0,145.7 63.1,146.1 67.3,146.9 70.5,147.4 74.0,148.0 77.7,148.6 81.5,149.0 85.2,149.2 88.9,149.3 92.4,149.1 95.7,148.6 98.9,148.1 102.1,147.6 105.4,146.9 108.6,146.2 111.9,145.1 115.1,143.8 118.3,142.1 121.6,140.0 124.8,137.3 128.1,134.0 131.3,129.5 134.5,123.8 136.2,120.5 137.8,117.1 139.4,113.6 141.0,110.0 142.6,106.3 144.3,102.6 145.9,99.1 147.5,95.6 149.1,92.2 150.7,89.1 154.0,83.6 157.2,79.5 160.5,77.1 163.7,76.7 167.0,78.0 170.2,80.7 173.4,84.5 176.7,89.1 179.9,94.3 183.2,99.7 186.4,105.0 189.6,110.0 192.9,114.4 196.1,117.9 199.4,120.8 202.6,123.4 205.8,125.8 209.1,128.0 212.3,130.2 215.6,132.5 218.8,135.1 222.1,137.9 225.3,141.3 228.5,145.1 231.8,150.1 233.4,153.2 235.0,156.5 236.6,160.1 238.3,163.9 239.9,167.8 241.5,171.9 243.1,175.9 244.7,179.9 246.4,183.8 248.0,187.5 249.6,191.1 251.2,194.4 254.5,200.0 257.7,203.8 260.9,205.5 264.2,204.5 267.4,200.2 269.0,197.1 270.7,193.3 272.3,189.1 273.9,184.4 275.5,179.5 277.1,174.3 278.8,168.9 280.4,163.6 282.0,158.2 283.6,153.0 285.3,148.0 286.9,143.3 288.5,139.0 290.1,135.1 291.7,131.9 295.0,127.4 298.2,126.1 301.5,127.7 304.7,131.5 307.9,137.1 309.6,140.3 311.2,143.7 312.8,147.3 314.4,150.9 316.0,154.5 317.7,158.0 319.3,161.3 320.9,164.4 324.1,169.6 327.4,173.1 330.6,174.1 333.9,173.2 337.1,171.0 340.4,167.6 343.6,163.4 346.8,158.4 350.1,152.9 353.3,147.1 356.6,141.3 359.8,135.7 363.0,130.4 366.3,125.0 367.9,121.8 369.5,118.3 371.1,114.5 372.8,110.6 374.4,106.6 376.0,102.5 377.6,98.5 379.2,94.5 380.9,90.6 382.5,86.9 384.1,83.4 385.7,80.3 389.0,75.2 392.2,72.0 395.4,71.2 398.7,73.3 401.9,79.3 403.6,83.6 405.2,88.6 406.8,94.2 408.4,100.3 410.0,106.9 411.7,113.7 413.3,120.8 414.9,128.0 416.5,135.2 418.1,142.3 419.8,149.2 421.4,155.7 423.0,161.9 424.6,167.6 426.2,172.6 427.9,176.9 429.5,180.4 432.7,184.7 436.0,186.0 439.2,185.0 442.4,182.1 445.7,177.9 448.9,172.9 452.2,167.5 455.4,162.2 458.6,157.5 461.9,153.9 465.1,151.9 468.4,151.1 471.6,150.7 474.9,150.8 478.1,151.3 481.3,152.1 484.6,153.3 487.8,154.7 491.1,156.3 494.3,158.2 497.5,160.2 500.8,162.5 504.0,165.4 507.3,168.9 510.5,172.8 513.7,176.8 517.0,181.0 520.2,185.0 523.5,188.8 526.7,192.2 530.0,194.9 533.2,197.0 536.4,199.0 539.7,201.2 542.9,203.3 546.2,205.2 549.4,206.6 552.6,207.4 555.9,207.2 559.1,205.9 562.4,203.3 565.6,199.1 568.8,192.6 570.5,188.2 572.1,183.0 573.7,177.2 575.3,170.9 576.9,164.2 578.6,157.2 580.2,150.0 581.8,142.6 583.4,135.3 585.0,128.0 586.7,120.9 588.3,114.1 589.9,107.7 591.5,101.7 593.2,96.3 594.8,91.6 596.4,87.7 598.0,84.7 601.3,81.6 604.5,82.3 607.7,86.0 611.0,92.2 612.6,95.9 614.2,100.1 615.8,104.5 617.5,109.1 619.1,113.9 620.7,118.7 622.3,123.4 623.9,128.0 625.6,132.4 627.2,136.5 628.8,140.2 630.4,143.5 633.7,148.4 636.9,151.5 640.1,154.0 643.4,155.9 646.6,157.2 649.9,157.9 653.1,158.1 656.4,157.7 659.6,156.8 662.8,155.4 666.1,153.5 669.3,151.1 672.6,147.5 675.8,142.9 679.0,137.6 682.3,131.8 683.9,128.7 685.5,125.7 687.1,122.6 688.8,119.5 690.4,116.5 693.6,110.7 696.9,105.5 700.1,101.0 703.3,97.4 706.6,94.4 709.8,91.8 713.1,89.5 716.3,87.5 719.6,85.8 722.8,84.2 726.0,82.7 729.3,81.2 732.5,79.7 735.8,78.2 739.0,76.6 742.2,75.2 745.5,73.8 748.7,72.5 752.0,71.2 755.2,70.1 758.4,69.0 761.7,68.0 764.9,67.0 768.2,66.0 771.4,65.1 774.7,64.0 777.9,62.9 781.1,61.7 784.4,60.7 787.6,59.8 790.9,59.1 794.1,58.7 797.3,58.7 800.6,59.1 803.8,60.0 807.3,61.6 811.0,63.8 814.7,66.5 818.5,69.6 822.2,72.8 825.7,76.0 829.0,79.0 833.2,83.0 836.4,85.8 " clip-path="url(#plotRect955257)" stroke-dasharray="none" stroke-opacity="1" style="box-sizing: inherit;"/><ellipse stroke="rgb(0,112,255)" stroke-width="2" fill="#0070ff" cx="60.0" cy="145.7" rx="1.5" ry="1.5" stroke-opacity="1" style="box-sizing: inherit;"/><ellipse stroke="rgb(0,112,255)" stroke-width="2" fill="#0070ff" cx="93.8" cy="148.9" rx="1.5" ry="1.5" stroke-opacity="1" style="box-sizing: inherit;"/><ellipse stroke="rgb(0,112,255)" stroke-width="2" fill="#0070ff" cx="127.5" cy="134.6" rx="1.5" ry="1.5" stroke-opacity="1" style="box-sizing: inherit;"/><ellipse stroke="rgb(0,112,255)" stroke-width="2" fill="#0070ff" cx="161.3" cy="76.8" rx="1.5" ry="1.5" stroke-opacity="1" style="box-sizing: inherit;"/><ellipse stroke="rgb(0,112,255)" stroke-width="2" fill="#0070ff" cx="195.0" cy="116.8" rx="1.5" ry="1.5" stroke-opacity="1" style="box-sizing: inherit;"/><ellipse stroke="rgb(0,112,255)" stroke-width="2" fill="#0070ff" cx="228.8" cy="145.5" rx="1.5" ry="1.5" stroke-opacity="1" style="box-sizing: inherit;"/><ellipse stroke="rgb(0,112,255)" stroke-width="2" fill="#0070ff" cx="262.6" cy="205.4" rx="1.5" ry="1.5" stroke-opacity="1" style="box-sizing: inherit;"/><ellipse stroke="rgb(0,112,255)" stroke-width="2" fill="#0070ff" cx="296.3" cy="126.5" rx="1.5" ry="1.5" stroke-opacity="1" style="box-sizing: inherit;"/><ellipse stroke="rgb(0,112,255)" stroke-width="2" fill="#0070ff" cx="330.1" cy="174.1" rx="1.5" ry="1.5" stroke-opacity="1" style="box-sizing: inherit;"/><ellipse stroke="rgb(0,112,255)" stroke-width="2" fill="#0070ff" cx="363.8" cy="129.1" rx="1.5" ry="1.5" stroke-opacity="1" style="box-sizing: inherit;"/><ellipse stroke="rgb(0,112,255)" stroke-width="2" fill="#0070ff" cx="397.6" cy="72.2" rx="1.5" ry="1.5" stroke-opacity="1" style="box-sizing: inherit;"/><ellipse stroke="rgb(0,112,255)" stroke-width="2" fill="#0070ff" cx="431.4" cy="183.4" rx="1.5" ry="1.5" stroke-opacity="1" style="box-sizing: inherit;"/><ellipse stroke="rgb(0,112,255)" stroke-width="2" fill="#0070ff" cx="465.1" cy="151.9" rx="1.5" ry="1.5" stroke-opacity="1" style="box-sizing: inherit;"/><ellipse stroke="rgb(0,112,255)" stroke-width="2" fill="#0070ff" cx="498.9" cy="161.1" rx="1.5" ry="1.5" stroke-opacity="1" style="box-sizing: inherit;"/><ellipse stroke="rgb(0,112,255)" stroke-width="2" fill="#0070ff" cx="532.7" cy="196.7" rx="1.5" ry="1.5" stroke-opacity="1" style="box-sizing: inherit;"/><ellipse stroke="rgb(0,112,255)" stroke-width="2" fill="#0070ff" cx="566.4" cy="197.8" rx="1.5" ry="1.5" stroke-opacity="1" style="box-sizing: inherit;"/><ellipse stroke="rgb(0,112,255)" stroke-width="2" fill="#0070ff" cx="600.2" cy="82.2" rx="1.5" ry="1.5" stroke-opacity="1" style="box-sizing: inherit;"/><ellipse stroke="rgb(0,112,255)" stroke-width="2" fill="#0070ff" cx="633.9" cy="148.7" rx="1.5" ry="1.5" stroke-opacity="1" style="box-sizing: inherit;"/><ellipse stroke="rgb(0,112,255)" stroke-width="2" fill="#0070ff" cx="667.7" cy="152.4" rx="1.5" ry="1.5" stroke-opacity="1" style="box-sizing: inherit;"/><ellipse stroke="rgb(0,112,255)" stroke-width="2" fill="#0070ff" cx="701.5" cy="99.4" rx="1.5" ry="1.5" stroke-opacity="1" style="box-sizing: inherit;"/><ellipse stroke="rgb(0,112,255)" stroke-width="2" fill="#0070ff" cx="735.2" cy="78.4" rx="1.5" ry="1.5" stroke-opacity="1" style="box-sizing: inherit;"/><ellipse stroke="rgb(0,112,255)" stroke-width="2" fill="#0070ff" cx="769.0" cy="65.8" rx="1.5" ry="1.5" stroke-opacity="1" style="box-sizing: inherit;"/><ellipse stroke="rgb(0,112,255)" stroke-width="2" fill="#0070ff" cx="802.7" cy="59.6" rx="1.5" ry="1.5" stroke-opacity="1" style="box-sizing: inherit;"/><ellipse stroke="rgb(0,112,255)" stroke-width="2" fill="#0070ff" cx="836.5" cy="85.9" rx="1.5" ry="1.5" stroke-opacity="1" style="box-sizing: inherit;"/></g></g><clipPath id="plotRect955257" style="box-sizing: inherit;"><rect x="59.0" y="44.0" width="778.5" height="177.0" style="box-sizing: inherit;"/></clipPath><clipPath id="plotRect353820" style="box-sizing: inherit;"><rect x="-1.0" y="-1.0" width="778.5" height="177.0" style="box-sizing: inherit;"/></clipPath><g class="wj-chart-annotationlayer" transform="translate(60, 45)" style="box-sizing: inherit;" clip-path="url(#plotRect353820)"><g class="gcchart-annotation gcchart-anno-shape gcchart-anno-polygon" style="box-sizing: inherit;"><g style="box-sizing: inherit;"><polygon stroke="#000000" stroke-width="1" fill="rgb(245,245,122)" points="0.0,175.0 0.0,0.0 337.6,0.0 337.6,175.0 " class="anno-shape wj-anno-shape" opacity="0.4" stroke-opacity="0" style="box-sizing: inherit;"/></g></g><g class="gcchart-annotation gcchart-anno-shape gcchart-anno-polygon" style="box-sizing: inherit;"><g style="box-sizing: inherit;"><polygon stroke="#000000" stroke-width="1" fill="rgb(255,170,0)" points="438.9,175.0 438.9,0.0 776.5,0.0 776.5,175.0 " class="anno-shape wj-anno-shape" opacity="0.4" stroke-opacity="0" style="box-sizing: inherit;"/></g></g><g class="gcchart-annotation gcchart-anno-shape gcchart-anno-polygon" style="box-sizing: inherit;"><g style="box-sizing: inherit;"><polygon stroke="#000000" stroke-width="1" fill="rgb(255,0,0)" points="236.3,175.0 236.3,0.0 270.1,0.0 270.1,175.0 " class="anno-shape wj-anno-shape" opacity="0.4" stroke-opacity="0" style="box-sizing: inherit;"/></g></g></g></svg>